<mxfile host="app.diagrams.net" modified="2023-12-12T11:29:25.395Z" agent="Mozilla/5.0 (Windows NT 10.0; Win64; x64) AppleWebKit/537.36 (KHTML, like Gecko) Chrome/119.0.0.0 Safari/537.36" etag="tTFQzPzVvJBAMbbibIGG" version="22.1.7" type="device" pages="2">
  <diagram id="C5RBs43oDa-KdzZeNtuy" name="Page-1">
    <mxGraphModel dx="752" dy="763" grid="1" gridSize="10" guides="1" tooltips="1" connect="1" arrows="1" fold="1" page="1" pageScale="1" pageWidth="827" pageHeight="1169" math="0" shadow="0">
      <root>
        <mxCell id="WIyWlLk6GJQsqaUBKTNV-0" />
        <mxCell id="WIyWlLk6GJQsqaUBKTNV-1" parent="WIyWlLk6GJQsqaUBKTNV-0" />
        <mxCell id="qxUsNWBHm_olxft8euE--2" style="edgeStyle=orthogonalEdgeStyle;rounded=0;orthogonalLoop=1;jettySize=auto;html=1;entryX=0.5;entryY=0;entryDx=0;entryDy=0;" edge="1" parent="WIyWlLk6GJQsqaUBKTNV-1" source="qxUsNWBHm_olxft8euE--0" target="qxUsNWBHm_olxft8euE--1">
          <mxGeometry relative="1" as="geometry" />
        </mxCell>
        <mxCell id="qxUsNWBHm_olxft8euE--0" value="start" style="strokeWidth=2;html=1;shape=mxgraph.flowchart.terminator;whiteSpace=wrap;" vertex="1" parent="WIyWlLk6GJQsqaUBKTNV-1">
          <mxGeometry x="250" y="160" width="100" height="60" as="geometry" />
        </mxCell>
        <mxCell id="qxUsNWBHm_olxft8euE--4" value="" style="edgeStyle=orthogonalEdgeStyle;rounded=0;orthogonalLoop=1;jettySize=auto;html=1;" edge="1" parent="WIyWlLk6GJQsqaUBKTNV-1" source="qxUsNWBHm_olxft8euE--1" target="qxUsNWBHm_olxft8euE--3">
          <mxGeometry relative="1" as="geometry" />
        </mxCell>
        <mxCell id="qxUsNWBHm_olxft8euE--6" value="yes" style="edgeStyle=orthogonalEdgeStyle;rounded=0;orthogonalLoop=1;jettySize=auto;html=1;" edge="1" parent="WIyWlLk6GJQsqaUBKTNV-1" source="qxUsNWBHm_olxft8euE--3" target="qxUsNWBHm_olxft8euE--5">
          <mxGeometry relative="1" as="geometry">
            <Array as="points">
              <mxPoint x="180" y="280" />
              <mxPoint x="180" y="880" />
              <mxPoint x="300" y="880" />
            </Array>
          </mxGeometry>
        </mxCell>
        <mxCell id="qxUsNWBHm_olxft8euE--23" value="no" style="edgeStyle=orthogonalEdgeStyle;rounded=0;orthogonalLoop=1;jettySize=auto;html=1;" edge="1" parent="WIyWlLk6GJQsqaUBKTNV-1" source="qxUsNWBHm_olxft8euE--3" target="qxUsNWBHm_olxft8euE--22">
          <mxGeometry relative="1" as="geometry" />
        </mxCell>
        <mxCell id="qxUsNWBHm_olxft8euE--3" value="!fin" style="rhombus;whiteSpace=wrap;html=1;" vertex="1" parent="WIyWlLk6GJQsqaUBKTNV-1">
          <mxGeometry x="260" y="240" width="80" height="80" as="geometry" />
        </mxCell>
        <mxCell id="qxUsNWBHm_olxft8euE--5" value="end" style="strokeWidth=2;html=1;shape=mxgraph.flowchart.terminator;whiteSpace=wrap;" vertex="1" parent="WIyWlLk6GJQsqaUBKTNV-1">
          <mxGeometry x="250" y="950" width="100" height="60" as="geometry" />
        </mxCell>
        <mxCell id="qxUsNWBHm_olxft8euE--10" value="no" style="edgeStyle=orthogonalEdgeStyle;rounded=0;orthogonalLoop=1;jettySize=auto;html=1;" edge="1" parent="WIyWlLk6GJQsqaUBKTNV-1" source="qxUsNWBHm_olxft8euE--7" target="qxUsNWBHm_olxft8euE--9">
          <mxGeometry relative="1" as="geometry" />
        </mxCell>
        <mxCell id="qxUsNWBHm_olxft8euE--36" value="yes" style="edgeStyle=orthogonalEdgeStyle;rounded=0;orthogonalLoop=1;jettySize=auto;html=1;" edge="1" parent="WIyWlLk6GJQsqaUBKTNV-1" source="qxUsNWBHm_olxft8euE--7" target="qxUsNWBHm_olxft8euE--35">
          <mxGeometry relative="1" as="geometry" />
        </mxCell>
        <mxCell id="qxUsNWBHm_olxft8euE--7" value="load" style="rhombus;whiteSpace=wrap;html=1;" vertex="1" parent="WIyWlLk6GJQsqaUBKTNV-1">
          <mxGeometry x="370" y="360" width="80" height="80" as="geometry" />
        </mxCell>
        <mxCell id="qxUsNWBHm_olxft8euE--12" value="no" style="edgeStyle=orthogonalEdgeStyle;rounded=0;orthogonalLoop=1;jettySize=auto;html=1;" edge="1" parent="WIyWlLk6GJQsqaUBKTNV-1" source="qxUsNWBHm_olxft8euE--9" target="qxUsNWBHm_olxft8euE--11">
          <mxGeometry relative="1" as="geometry" />
        </mxCell>
        <mxCell id="qxUsNWBHm_olxft8euE--38" value="yes" style="edgeStyle=orthogonalEdgeStyle;rounded=0;orthogonalLoop=1;jettySize=auto;html=1;" edge="1" parent="WIyWlLk6GJQsqaUBKTNV-1" source="qxUsNWBHm_olxft8euE--9" target="qxUsNWBHm_olxft8euE--37">
          <mxGeometry relative="1" as="geometry" />
        </mxCell>
        <mxCell id="qxUsNWBHm_olxft8euE--9" value="print" style="rhombus;whiteSpace=wrap;html=1;" vertex="1" parent="WIyWlLk6GJQsqaUBKTNV-1">
          <mxGeometry x="490" y="360" width="80" height="80" as="geometry" />
        </mxCell>
        <mxCell id="qxUsNWBHm_olxft8euE--14" value="no" style="edgeStyle=orthogonalEdgeStyle;rounded=0;orthogonalLoop=1;jettySize=auto;html=1;" edge="1" parent="WIyWlLk6GJQsqaUBKTNV-1" source="qxUsNWBHm_olxft8euE--11" target="qxUsNWBHm_olxft8euE--13">
          <mxGeometry relative="1" as="geometry" />
        </mxCell>
        <mxCell id="qxUsNWBHm_olxft8euE--40" value="yes" style="edgeStyle=orthogonalEdgeStyle;rounded=0;orthogonalLoop=1;jettySize=auto;html=1;" edge="1" parent="WIyWlLk6GJQsqaUBKTNV-1" source="qxUsNWBHm_olxft8euE--11" target="qxUsNWBHm_olxft8euE--39">
          <mxGeometry relative="1" as="geometry" />
        </mxCell>
        <mxCell id="qxUsNWBHm_olxft8euE--11" value="bfs" style="rhombus;whiteSpace=wrap;html=1;" vertex="1" parent="WIyWlLk6GJQsqaUBKTNV-1">
          <mxGeometry x="610" y="360" width="80" height="80" as="geometry" />
        </mxCell>
        <mxCell id="qxUsNWBHm_olxft8euE--27" value="no" style="edgeStyle=orthogonalEdgeStyle;rounded=0;orthogonalLoop=1;jettySize=auto;html=1;" edge="1" parent="WIyWlLk6GJQsqaUBKTNV-1" source="qxUsNWBHm_olxft8euE--13" target="qxUsNWBHm_olxft8euE--26">
          <mxGeometry relative="1" as="geometry" />
        </mxCell>
        <mxCell id="qxUsNWBHm_olxft8euE--43" value="yes" style="edgeStyle=orthogonalEdgeStyle;rounded=0;orthogonalLoop=1;jettySize=auto;html=1;" edge="1" parent="WIyWlLk6GJQsqaUBKTNV-1" source="qxUsNWBHm_olxft8euE--13" target="qxUsNWBHm_olxft8euE--41">
          <mxGeometry relative="1" as="geometry" />
        </mxCell>
        <mxCell id="qxUsNWBHm_olxft8euE--13" value="dfs" style="rhombus;whiteSpace=wrap;html=1;" vertex="1" parent="WIyWlLk6GJQsqaUBKTNV-1">
          <mxGeometry x="730" y="360" width="80" height="80" as="geometry" />
        </mxCell>
        <mxCell id="qxUsNWBHm_olxft8euE--19" value="no" style="edgeStyle=orthogonalEdgeStyle;rounded=0;orthogonalLoop=1;jettySize=auto;html=1;" edge="1" parent="WIyWlLk6GJQsqaUBKTNV-1" source="qxUsNWBHm_olxft8euE--16" target="qxUsNWBHm_olxft8euE--18">
          <mxGeometry relative="1" as="geometry" />
        </mxCell>
        <mxCell id="qxUsNWBHm_olxft8euE--46" value="yes" style="edgeStyle=orthogonalEdgeStyle;rounded=0;orthogonalLoop=1;jettySize=auto;html=1;" edge="1" parent="WIyWlLk6GJQsqaUBKTNV-1" source="qxUsNWBHm_olxft8euE--16" target="qxUsNWBHm_olxft8euE--44">
          <mxGeometry relative="1" as="geometry" />
        </mxCell>
        <mxCell id="qxUsNWBHm_olxft8euE--16" value="kruskal" style="rhombus;whiteSpace=wrap;html=1;" vertex="1" parent="WIyWlLk6GJQsqaUBKTNV-1">
          <mxGeometry x="340" y="520" width="80" height="80" as="geometry" />
        </mxCell>
        <mxCell id="qxUsNWBHm_olxft8euE--21" value="no" style="edgeStyle=orthogonalEdgeStyle;rounded=0;orthogonalLoop=1;jettySize=auto;html=1;" edge="1" parent="WIyWlLk6GJQsqaUBKTNV-1" source="qxUsNWBHm_olxft8euE--18" target="qxUsNWBHm_olxft8euE--20">
          <mxGeometry relative="1" as="geometry" />
        </mxCell>
        <mxCell id="qxUsNWBHm_olxft8euE--48" value="yes" style="edgeStyle=orthogonalEdgeStyle;rounded=0;orthogonalLoop=1;jettySize=auto;html=1;" edge="1" parent="WIyWlLk6GJQsqaUBKTNV-1" source="qxUsNWBHm_olxft8euE--18" target="qxUsNWBHm_olxft8euE--47">
          <mxGeometry relative="1" as="geometry" />
        </mxCell>
        <mxCell id="qxUsNWBHm_olxft8euE--18" value="dijkstra" style="rhombus;whiteSpace=wrap;html=1;" vertex="1" parent="WIyWlLk6GJQsqaUBKTNV-1">
          <mxGeometry x="460" y="520" width="80" height="80" as="geometry" />
        </mxCell>
        <mxCell id="qxUsNWBHm_olxft8euE--25" value="no" style="edgeStyle=orthogonalEdgeStyle;rounded=0;orthogonalLoop=1;jettySize=auto;html=1;" edge="1" parent="WIyWlLk6GJQsqaUBKTNV-1" source="qxUsNWBHm_olxft8euE--20" target="qxUsNWBHm_olxft8euE--24">
          <mxGeometry relative="1" as="geometry" />
        </mxCell>
        <mxCell id="qxUsNWBHm_olxft8euE--50" value="yes" style="edgeStyle=orthogonalEdgeStyle;rounded=0;orthogonalLoop=1;jettySize=auto;html=1;" edge="1" parent="WIyWlLk6GJQsqaUBKTNV-1" source="qxUsNWBHm_olxft8euE--20" target="qxUsNWBHm_olxft8euE--49">
          <mxGeometry relative="1" as="geometry" />
        </mxCell>
        <mxCell id="qxUsNWBHm_olxft8euE--20" value="bellmanford" style="rhombus;whiteSpace=wrap;html=1;" vertex="1" parent="WIyWlLk6GJQsqaUBKTNV-1">
          <mxGeometry x="580" y="520" width="80" height="80" as="geometry" />
        </mxCell>
        <mxCell id="qxUsNWBHm_olxft8euE--30" value="yes" style="edgeStyle=orthogonalEdgeStyle;rounded=0;orthogonalLoop=1;jettySize=auto;html=1;" edge="1" parent="WIyWlLk6GJQsqaUBKTNV-1" source="qxUsNWBHm_olxft8euE--22" target="qxUsNWBHm_olxft8euE--7">
          <mxGeometry relative="1" as="geometry" />
        </mxCell>
        <mxCell id="qxUsNWBHm_olxft8euE--22" value="getline(fin, cmd)" style="rhombus;whiteSpace=wrap;html=1;" vertex="1" parent="WIyWlLk6GJQsqaUBKTNV-1">
          <mxGeometry x="260" y="360" width="80" height="80" as="geometry" />
        </mxCell>
        <mxCell id="qxUsNWBHm_olxft8euE--29" value="no" style="edgeStyle=orthogonalEdgeStyle;rounded=0;orthogonalLoop=1;jettySize=auto;html=1;" edge="1" parent="WIyWlLk6GJQsqaUBKTNV-1" source="qxUsNWBHm_olxft8euE--24" target="qxUsNWBHm_olxft8euE--28">
          <mxGeometry relative="1" as="geometry" />
        </mxCell>
        <mxCell id="qxUsNWBHm_olxft8euE--52" value="yes" style="edgeStyle=orthogonalEdgeStyle;rounded=0;orthogonalLoop=1;jettySize=auto;html=1;" edge="1" parent="WIyWlLk6GJQsqaUBKTNV-1" source="qxUsNWBHm_olxft8euE--24" target="qxUsNWBHm_olxft8euE--51">
          <mxGeometry relative="1" as="geometry" />
        </mxCell>
        <mxCell id="qxUsNWBHm_olxft8euE--24" value="floyd" style="rhombus;whiteSpace=wrap;html=1;" vertex="1" parent="WIyWlLk6GJQsqaUBKTNV-1">
          <mxGeometry x="700" y="520" width="80" height="80" as="geometry" />
        </mxCell>
        <mxCell id="qxUsNWBHm_olxft8euE--34" value="no" style="edgeStyle=orthogonalEdgeStyle;rounded=0;orthogonalLoop=1;jettySize=auto;html=1;entryX=0;entryY=0.5;entryDx=0;entryDy=0;" edge="1" parent="WIyWlLk6GJQsqaUBKTNV-1" source="qxUsNWBHm_olxft8euE--26" target="qxUsNWBHm_olxft8euE--16">
          <mxGeometry relative="1" as="geometry">
            <Array as="points">
              <mxPoint x="890" y="510" />
              <mxPoint x="320" y="510" />
              <mxPoint x="320" y="560" />
            </Array>
          </mxGeometry>
        </mxCell>
        <mxCell id="qxUsNWBHm_olxft8euE--58" value="yes" style="edgeStyle=orthogonalEdgeStyle;rounded=0;orthogonalLoop=1;jettySize=auto;html=1;entryX=0.5;entryY=0;entryDx=0;entryDy=0;" edge="1" parent="WIyWlLk6GJQsqaUBKTNV-1" source="qxUsNWBHm_olxft8euE--26" target="qxUsNWBHm_olxft8euE--57">
          <mxGeometry relative="1" as="geometry">
            <Array as="points">
              <mxPoint x="955" y="400" />
              <mxPoint x="955" y="430" />
              <mxPoint x="955" y="430" />
            </Array>
          </mxGeometry>
        </mxCell>
        <mxCell id="qxUsNWBHm_olxft8euE--26" value="kwangwoon" style="rhombus;whiteSpace=wrap;html=1;" vertex="1" parent="WIyWlLk6GJQsqaUBKTNV-1">
          <mxGeometry x="850" y="360" width="80" height="80" as="geometry" />
        </mxCell>
        <mxCell id="qxUsNWBHm_olxft8euE--33" value="no" style="edgeStyle=orthogonalEdgeStyle;rounded=0;orthogonalLoop=1;jettySize=auto;html=1;exitX=1;exitY=0.5;exitDx=0;exitDy=0;" edge="1" parent="WIyWlLk6GJQsqaUBKTNV-1" source="qxUsNWBHm_olxft8euE--28">
          <mxGeometry x="-0.9435" relative="1" as="geometry">
            <mxPoint x="298.5739315257353" y="339.9999999999998" as="targetPoint" />
            <Array as="points">
              <mxPoint x="1020" y="560" />
              <mxPoint x="1020" y="340" />
            </Array>
            <mxPoint as="offset" />
          </mxGeometry>
        </mxCell>
        <mxCell id="qxUsNWBHm_olxft8euE--28" value="exit" style="rhombus;whiteSpace=wrap;html=1;" vertex="1" parent="WIyWlLk6GJQsqaUBKTNV-1">
          <mxGeometry x="820" y="520" width="80" height="80" as="geometry" />
        </mxCell>
        <mxCell id="qxUsNWBHm_olxft8euE--31" value="no" style="edgeStyle=orthogonalEdgeStyle;rounded=0;orthogonalLoop=1;jettySize=auto;html=1;entryX=0.5;entryY=0;entryDx=0;entryDy=0;entryPerimeter=0;" edge="1" parent="WIyWlLk6GJQsqaUBKTNV-1" source="qxUsNWBHm_olxft8euE--22" target="qxUsNWBHm_olxft8euE--5">
          <mxGeometry relative="1" as="geometry" />
        </mxCell>
        <mxCell id="qxUsNWBHm_olxft8euE--32" value="yes" style="edgeStyle=orthogonalEdgeStyle;rounded=0;orthogonalLoop=1;jettySize=auto;html=1;entryX=0.5;entryY=0;entryDx=0;entryDy=0;entryPerimeter=0;" edge="1" parent="WIyWlLk6GJQsqaUBKTNV-1" source="qxUsNWBHm_olxft8euE--1" target="qxUsNWBHm_olxft8euE--5">
          <mxGeometry relative="1" as="geometry">
            <Array as="points">
              <mxPoint x="300" y="670" />
            </Array>
          </mxGeometry>
        </mxCell>
        <mxCell id="qxUsNWBHm_olxft8euE--53" style="edgeStyle=orthogonalEdgeStyle;rounded=0;orthogonalLoop=1;jettySize=auto;html=1;exitX=0.5;exitY=1;exitDx=0;exitDy=0;" edge="1" parent="WIyWlLk6GJQsqaUBKTNV-1" source="qxUsNWBHm_olxft8euE--35">
          <mxGeometry relative="1" as="geometry">
            <mxPoint x="1020" y="520" as="targetPoint" />
            <Array as="points">
              <mxPoint x="410" y="520" />
            </Array>
          </mxGeometry>
        </mxCell>
        <mxCell id="qxUsNWBHm_olxft8euE--35" value="load()" style="rounded=0;whiteSpace=wrap;html=1;" vertex="1" parent="WIyWlLk6GJQsqaUBKTNV-1">
          <mxGeometry x="375" y="460" width="70" height="40" as="geometry" />
        </mxCell>
        <mxCell id="qxUsNWBHm_olxft8euE--54" style="edgeStyle=orthogonalEdgeStyle;rounded=0;orthogonalLoop=1;jettySize=auto;html=1;exitX=0.5;exitY=1;exitDx=0;exitDy=0;" edge="1" parent="WIyWlLk6GJQsqaUBKTNV-1" source="qxUsNWBHm_olxft8euE--37">
          <mxGeometry relative="1" as="geometry">
            <mxPoint x="1020" y="520" as="targetPoint" />
            <Array as="points">
              <mxPoint x="530" y="520" />
            </Array>
          </mxGeometry>
        </mxCell>
        <mxCell id="qxUsNWBHm_olxft8euE--37" value="print()" style="rounded=0;whiteSpace=wrap;html=1;" vertex="1" parent="WIyWlLk6GJQsqaUBKTNV-1">
          <mxGeometry x="495" y="460" width="70" height="40" as="geometry" />
        </mxCell>
        <mxCell id="qxUsNWBHm_olxft8euE--55" style="edgeStyle=orthogonalEdgeStyle;rounded=0;orthogonalLoop=1;jettySize=auto;html=1;exitX=0.5;exitY=1;exitDx=0;exitDy=0;" edge="1" parent="WIyWlLk6GJQsqaUBKTNV-1" source="qxUsNWBHm_olxft8euE--39">
          <mxGeometry relative="1" as="geometry">
            <mxPoint x="1020" y="520" as="targetPoint" />
            <Array as="points">
              <mxPoint x="650" y="520" />
            </Array>
          </mxGeometry>
        </mxCell>
        <mxCell id="qxUsNWBHm_olxft8euE--39" value="bfs()" style="rounded=0;whiteSpace=wrap;html=1;" vertex="1" parent="WIyWlLk6GJQsqaUBKTNV-1">
          <mxGeometry x="615" y="460" width="70" height="40" as="geometry" />
        </mxCell>
        <mxCell id="qxUsNWBHm_olxft8euE--56" style="edgeStyle=orthogonalEdgeStyle;rounded=0;orthogonalLoop=1;jettySize=auto;html=1;exitX=0.5;exitY=1;exitDx=0;exitDy=0;" edge="1" parent="WIyWlLk6GJQsqaUBKTNV-1" source="qxUsNWBHm_olxft8euE--41">
          <mxGeometry relative="1" as="geometry">
            <mxPoint x="1020" y="520" as="targetPoint" />
            <Array as="points">
              <mxPoint x="770" y="520" />
              <mxPoint x="1020" y="520" />
            </Array>
          </mxGeometry>
        </mxCell>
        <mxCell id="qxUsNWBHm_olxft8euE--41" value="dfs()" style="rounded=0;whiteSpace=wrap;html=1;" vertex="1" parent="WIyWlLk6GJQsqaUBKTNV-1">
          <mxGeometry x="735" y="460" width="70" height="40" as="geometry" />
        </mxCell>
        <mxCell id="qxUsNWBHm_olxft8euE--61" style="edgeStyle=orthogonalEdgeStyle;rounded=0;orthogonalLoop=1;jettySize=auto;html=1;exitX=0.5;exitY=1;exitDx=0;exitDy=0;" edge="1" parent="WIyWlLk6GJQsqaUBKTNV-1" source="qxUsNWBHm_olxft8euE--44">
          <mxGeometry relative="1" as="geometry">
            <mxPoint x="1021" y="560" as="targetPoint" />
            <Array as="points">
              <mxPoint x="380" y="720" />
              <mxPoint x="1021" y="720" />
              <mxPoint x="1021" y="560" />
            </Array>
          </mxGeometry>
        </mxCell>
        <mxCell id="qxUsNWBHm_olxft8euE--44" value="kruskal()" style="rounded=0;whiteSpace=wrap;html=1;" vertex="1" parent="WIyWlLk6GJQsqaUBKTNV-1">
          <mxGeometry x="345" y="620" width="70" height="40" as="geometry" />
        </mxCell>
        <mxCell id="qxUsNWBHm_olxft8euE--62" style="edgeStyle=orthogonalEdgeStyle;rounded=0;orthogonalLoop=1;jettySize=auto;html=1;" edge="1" parent="WIyWlLk6GJQsqaUBKTNV-1" source="qxUsNWBHm_olxft8euE--47">
          <mxGeometry relative="1" as="geometry">
            <mxPoint x="1021" y="560" as="targetPoint" />
            <Array as="points">
              <mxPoint x="500" y="700" />
              <mxPoint x="1021" y="700" />
            </Array>
          </mxGeometry>
        </mxCell>
        <mxCell id="qxUsNWBHm_olxft8euE--47" value="dijkstra()" style="rounded=0;whiteSpace=wrap;html=1;" vertex="1" parent="WIyWlLk6GJQsqaUBKTNV-1">
          <mxGeometry x="465" y="620" width="70" height="40" as="geometry" />
        </mxCell>
        <mxCell id="qxUsNWBHm_olxft8euE--63" style="edgeStyle=orthogonalEdgeStyle;rounded=0;orthogonalLoop=1;jettySize=auto;html=1;exitX=0.5;exitY=1;exitDx=0;exitDy=0;" edge="1" parent="WIyWlLk6GJQsqaUBKTNV-1" source="qxUsNWBHm_olxft8euE--49">
          <mxGeometry relative="1" as="geometry">
            <mxPoint x="1020" y="560" as="targetPoint" />
            <Array as="points">
              <mxPoint x="620" y="700" />
              <mxPoint x="1021" y="700" />
            </Array>
          </mxGeometry>
        </mxCell>
        <mxCell id="qxUsNWBHm_olxft8euE--49" value="bellmanford()" style="rounded=0;whiteSpace=wrap;html=1;" vertex="1" parent="WIyWlLk6GJQsqaUBKTNV-1">
          <mxGeometry x="585" y="620" width="70" height="40" as="geometry" />
        </mxCell>
        <mxCell id="qxUsNWBHm_olxft8euE--64" style="edgeStyle=orthogonalEdgeStyle;rounded=0;orthogonalLoop=1;jettySize=auto;html=1;exitX=0.5;exitY=1;exitDx=0;exitDy=0;" edge="1" parent="WIyWlLk6GJQsqaUBKTNV-1" source="qxUsNWBHm_olxft8euE--51">
          <mxGeometry relative="1" as="geometry">
            <mxPoint x="1020" y="560" as="targetPoint" />
            <Array as="points">
              <mxPoint x="740" y="700" />
              <mxPoint x="1021" y="700" />
            </Array>
          </mxGeometry>
        </mxCell>
        <mxCell id="qxUsNWBHm_olxft8euE--51" value="floyd()" style="rounded=0;whiteSpace=wrap;html=1;" vertex="1" parent="WIyWlLk6GJQsqaUBKTNV-1">
          <mxGeometry x="705" y="620" width="70" height="40" as="geometry" />
        </mxCell>
        <mxCell id="qxUsNWBHm_olxft8euE--60" style="edgeStyle=orthogonalEdgeStyle;rounded=0;orthogonalLoop=1;jettySize=auto;html=1;exitX=0.5;exitY=1;exitDx=0;exitDy=0;" edge="1" parent="WIyWlLk6GJQsqaUBKTNV-1" source="qxUsNWBHm_olxft8euE--57">
          <mxGeometry relative="1" as="geometry">
            <mxPoint x="1020" y="520" as="targetPoint" />
            <Array as="points">
              <mxPoint x="955" y="520" />
            </Array>
          </mxGeometry>
        </mxCell>
        <mxCell id="qxUsNWBHm_olxft8euE--57" value="dfs()" style="rounded=0;whiteSpace=wrap;html=1;" vertex="1" parent="WIyWlLk6GJQsqaUBKTNV-1">
          <mxGeometry x="920" y="450" width="70" height="40" as="geometry" />
        </mxCell>
        <mxCell id="qxUsNWBHm_olxft8euE--65" value="" style="edgeStyle=orthogonalEdgeStyle;rounded=0;orthogonalLoop=1;jettySize=auto;html=1;entryX=0.5;entryY=0;entryDx=0;entryDy=0;entryPerimeter=0;" edge="1" parent="WIyWlLk6GJQsqaUBKTNV-1" source="qxUsNWBHm_olxft8euE--28" target="qxUsNWBHm_olxft8euE--1">
          <mxGeometry relative="1" as="geometry">
            <mxPoint x="860" y="600" as="sourcePoint" />
            <mxPoint x="300" y="950" as="targetPoint" />
            <Array as="points">
              <mxPoint x="860" y="670" />
            </Array>
          </mxGeometry>
        </mxCell>
        <mxCell id="qxUsNWBHm_olxft8euE--1" value="fin close" style="rounded=0;whiteSpace=wrap;html=1;" vertex="1" parent="WIyWlLk6GJQsqaUBKTNV-1">
          <mxGeometry x="240" y="760" width="120" height="60" as="geometry" />
        </mxCell>
      </root>
    </mxGraphModel>
  </diagram>
  <diagram id="P_mjvCdtXqanflJQ5Wna" name="bfs">
    <mxGraphModel dx="377" dy="382" grid="1" gridSize="10" guides="1" tooltips="1" connect="1" arrows="1" fold="1" page="1" pageScale="1" pageWidth="1100" pageHeight="850" math="0" shadow="0">
      <root>
        <mxCell id="0" />
        <mxCell id="1" parent="0" />
        <mxCell id="MZ6gyHuy5aCQJNglztON-3" value="" style="edgeStyle=orthogonalEdgeStyle;rounded=0;orthogonalLoop=1;jettySize=auto;html=1;" edge="1" parent="1" source="MZ6gyHuy5aCQJNglztON-1" target="MZ6gyHuy5aCQJNglztON-2">
          <mxGeometry relative="1" as="geometry" />
        </mxCell>
        <mxCell id="MZ6gyHuy5aCQJNglztON-1" value="start" style="strokeWidth=2;html=1;shape=mxgraph.flowchart.terminator;whiteSpace=wrap;" vertex="1" parent="1">
          <mxGeometry x="160" y="60" width="100" height="60" as="geometry" />
        </mxCell>
        <mxCell id="MZ6gyHuy5aCQJNglztON-6" value="" style="edgeStyle=orthogonalEdgeStyle;rounded=0;orthogonalLoop=1;jettySize=auto;html=1;" edge="1" parent="1" source="MZ6gyHuy5aCQJNglztON-2" target="MZ6gyHuy5aCQJNglztON-5">
          <mxGeometry relative="1" as="geometry" />
        </mxCell>
        <mxCell id="MZ6gyHuy5aCQJNglztON-2" value="option에 따른 vertex map 배열 생성과 data 복사" style="rounded=0;whiteSpace=wrap;html=1;" vertex="1" parent="1">
          <mxGeometry x="140" y="150" width="140" height="60" as="geometry" />
        </mxCell>
        <mxCell id="MZ6gyHuy5aCQJNglztON-10" value="" style="edgeStyle=orthogonalEdgeStyle;rounded=0;orthogonalLoop=1;jettySize=auto;html=1;" edge="1" parent="1" source="MZ6gyHuy5aCQJNglztON-5" target="MZ6gyHuy5aCQJNglztON-9">
          <mxGeometry relative="1" as="geometry" />
        </mxCell>
        <mxCell id="MZ6gyHuy5aCQJNglztON-5" value="큐에 start vertex를 push" style="rounded=0;whiteSpace=wrap;html=1;" vertex="1" parent="1">
          <mxGeometry x="140" y="240" width="140" height="60" as="geometry" />
        </mxCell>
        <mxCell id="MZ6gyHuy5aCQJNglztON-12" value="" style="edgeStyle=orthogonalEdgeStyle;rounded=0;orthogonalLoop=1;jettySize=auto;html=1;" edge="1" parent="1" source="MZ6gyHuy5aCQJNglztON-9" target="MZ6gyHuy5aCQJNglztON-11">
          <mxGeometry relative="1" as="geometry" />
        </mxCell>
        <mxCell id="MZ6gyHuy5aCQJNglztON-9" value="vertex 방문 표시" style="rounded=0;whiteSpace=wrap;html=1;" vertex="1" parent="1">
          <mxGeometry x="140" y="330" width="140" height="60" as="geometry" />
        </mxCell>
        <mxCell id="MZ6gyHuy5aCQJNglztON-14" value="yes" style="edgeStyle=orthogonalEdgeStyle;rounded=0;orthogonalLoop=1;jettySize=auto;html=1;" edge="1" parent="1" source="MZ6gyHuy5aCQJNglztON-11" target="MZ6gyHuy5aCQJNglztON-13">
          <mxGeometry relative="1" as="geometry" />
        </mxCell>
        <mxCell id="MZ6gyHuy5aCQJNglztON-30" value="no" style="edgeStyle=orthogonalEdgeStyle;rounded=0;orthogonalLoop=1;jettySize=auto;html=1;exitX=1;exitY=0.5;exitDx=0;exitDy=0;entryX=0.5;entryY=0;entryDx=0;entryDy=0;" edge="1" parent="1" source="MZ6gyHuy5aCQJNglztON-11" target="MZ6gyHuy5aCQJNglztON-29">
          <mxGeometry x="-0.9514" relative="1" as="geometry">
            <Array as="points">
              <mxPoint x="300" y="445" />
              <mxPoint x="300" y="130" />
              <mxPoint x="650" y="130" />
            </Array>
            <mxPoint as="offset" />
          </mxGeometry>
        </mxCell>
        <mxCell id="MZ6gyHuy5aCQJNglztON-11" value="!queue.empty()" style="rhombus;whiteSpace=wrap;html=1;" vertex="1" parent="1">
          <mxGeometry x="137.5" y="420" width="145" height="50" as="geometry" />
        </mxCell>
        <mxCell id="MZ6gyHuy5aCQJNglztON-16" value="" style="edgeStyle=orthogonalEdgeStyle;rounded=0;orthogonalLoop=1;jettySize=auto;html=1;" edge="1" parent="1" source="MZ6gyHuy5aCQJNglztON-13" target="MZ6gyHuy5aCQJNglztON-15">
          <mxGeometry relative="1" as="geometry">
            <Array as="points">
              <mxPoint x="310" y="530" />
              <mxPoint x="310" y="180" />
            </Array>
          </mxGeometry>
        </mxCell>
        <mxCell id="MZ6gyHuy5aCQJNglztON-13" value="queue를 pop" style="rounded=0;whiteSpace=wrap;html=1;" vertex="1" parent="1">
          <mxGeometry x="140" y="500" width="140" height="60" as="geometry" />
        </mxCell>
        <mxCell id="MZ6gyHuy5aCQJNglztON-19" value="yes" style="edgeStyle=orthogonalEdgeStyle;rounded=0;orthogonalLoop=1;jettySize=auto;html=1;" edge="1" parent="1" source="MZ6gyHuy5aCQJNglztON-15" target="MZ6gyHuy5aCQJNglztON-18">
          <mxGeometry relative="1" as="geometry" />
        </mxCell>
        <mxCell id="MZ6gyHuy5aCQJNglztON-27" value="no" style="edgeStyle=orthogonalEdgeStyle;rounded=0;orthogonalLoop=1;jettySize=auto;html=1;exitX=1;exitY=0.5;exitDx=0;exitDy=0;" edge="1" parent="1" source="MZ6gyHuy5aCQJNglztON-15">
          <mxGeometry x="-0.9667" relative="1" as="geometry">
            <mxPoint x="212.07794189453125" y="410" as="targetPoint" />
            <Array as="points">
              <mxPoint x="560" y="180" />
              <mxPoint x="560" y="580" />
              <mxPoint x="110" y="580" />
              <mxPoint x="110" y="410" />
            </Array>
            <mxPoint as="offset" />
          </mxGeometry>
        </mxCell>
        <mxCell id="MZ6gyHuy5aCQJNglztON-15" value="해당 vertex에 도달할 &lt;br&gt;수&amp;nbsp; 있는 곳이 남았는가" style="rhombus;whiteSpace=wrap;html=1;" vertex="1" parent="1">
          <mxGeometry x="320" y="150" width="160" height="60" as="geometry" />
        </mxCell>
        <mxCell id="MZ6gyHuy5aCQJNglztON-21" value="no" style="edgeStyle=orthogonalEdgeStyle;rounded=0;orthogonalLoop=1;jettySize=auto;html=1;" edge="1" parent="1" source="MZ6gyHuy5aCQJNglztON-18" target="MZ6gyHuy5aCQJNglztON-20">
          <mxGeometry relative="1" as="geometry" />
        </mxCell>
        <mxCell id="MZ6gyHuy5aCQJNglztON-24" value="yes" style="edgeStyle=orthogonalEdgeStyle;rounded=0;orthogonalLoop=1;jettySize=auto;html=1;exitX=1;exitY=0.5;exitDx=0;exitDy=0;" edge="1" parent="1" source="MZ6gyHuy5aCQJNglztON-18">
          <mxGeometry x="-0.931" relative="1" as="geometry">
            <mxPoint x="300" y="530" as="targetPoint" />
            <Array as="points">
              <mxPoint x="530" y="270" />
              <mxPoint x="530" y="550" />
              <mxPoint x="300" y="550" />
            </Array>
            <mxPoint as="offset" />
          </mxGeometry>
        </mxCell>
        <mxCell id="MZ6gyHuy5aCQJNglztON-18" value="해당 vertex를 방문했는가?" style="rhombus;whiteSpace=wrap;html=1;" vertex="1" parent="1">
          <mxGeometry x="320" y="240" width="160" height="60" as="geometry" />
        </mxCell>
        <mxCell id="MZ6gyHuy5aCQJNglztON-23" value="" style="edgeStyle=orthogonalEdgeStyle;rounded=0;orthogonalLoop=1;jettySize=auto;html=1;" edge="1" parent="1" source="MZ6gyHuy5aCQJNglztON-20" target="MZ6gyHuy5aCQJNglztON-22">
          <mxGeometry relative="1" as="geometry" />
        </mxCell>
        <mxCell id="MZ6gyHuy5aCQJNglztON-20" value="vertex 방문 표시" style="rounded=0;whiteSpace=wrap;html=1;" vertex="1" parent="1">
          <mxGeometry x="330" y="330" width="140" height="60" as="geometry" />
        </mxCell>
        <mxCell id="MZ6gyHuy5aCQJNglztON-26" style="edgeStyle=orthogonalEdgeStyle;rounded=0;orthogonalLoop=1;jettySize=auto;html=1;" edge="1" parent="1" source="MZ6gyHuy5aCQJNglztON-22">
          <mxGeometry relative="1" as="geometry">
            <mxPoint x="530" y="450" as="targetPoint" />
          </mxGeometry>
        </mxCell>
        <mxCell id="MZ6gyHuy5aCQJNglztON-22" value="큐에 해당 vertex를 push" style="rounded=0;whiteSpace=wrap;html=1;" vertex="1" parent="1">
          <mxGeometry x="330" y="420" width="140" height="60" as="geometry" />
        </mxCell>
        <mxCell id="MZ6gyHuy5aCQJNglztON-32" value="" style="edgeStyle=orthogonalEdgeStyle;rounded=0;orthogonalLoop=1;jettySize=auto;html=1;" edge="1" parent="1" source="MZ6gyHuy5aCQJNglztON-29" target="MZ6gyHuy5aCQJNglztON-31">
          <mxGeometry relative="1" as="geometry" />
        </mxCell>
        <mxCell id="MZ6gyHuy5aCQJNglztON-29" value="방문했던 vertex를 &lt;br&gt;순서대로 출력" style="rounded=0;whiteSpace=wrap;html=1;" vertex="1" parent="1">
          <mxGeometry x="580" y="150" width="140" height="60" as="geometry" />
        </mxCell>
        <mxCell id="MZ6gyHuy5aCQJNglztON-31" value="end" style="strokeWidth=2;html=1;shape=mxgraph.flowchart.terminator;whiteSpace=wrap;" vertex="1" parent="1">
          <mxGeometry x="600" y="250" width="100" height="60" as="geometry" />
        </mxCell>
        <mxCell id="MZ6gyHuy5aCQJNglztON-33" value="" style="edgeStyle=orthogonalEdgeStyle;rounded=0;orthogonalLoop=1;jettySize=auto;html=1;" edge="1" source="MZ6gyHuy5aCQJNglztON-34" target="MZ6gyHuy5aCQJNglztON-36" parent="1">
          <mxGeometry relative="1" as="geometry" />
        </mxCell>
        <mxCell id="MZ6gyHuy5aCQJNglztON-34" value="start" style="strokeWidth=2;html=1;shape=mxgraph.flowchart.terminator;whiteSpace=wrap;" vertex="1" parent="1">
          <mxGeometry x="870" y="50" width="100" height="60" as="geometry" />
        </mxCell>
        <mxCell id="MZ6gyHuy5aCQJNglztON-35" value="" style="edgeStyle=orthogonalEdgeStyle;rounded=0;orthogonalLoop=1;jettySize=auto;html=1;" edge="1" source="MZ6gyHuy5aCQJNglztON-36" target="MZ6gyHuy5aCQJNglztON-38" parent="1">
          <mxGeometry relative="1" as="geometry" />
        </mxCell>
        <mxCell id="MZ6gyHuy5aCQJNglztON-36" value="option에 따른 vertex map 배열 생성과 data 복사" style="rounded=0;whiteSpace=wrap;html=1;" vertex="1" parent="1">
          <mxGeometry x="850" y="140" width="140" height="60" as="geometry" />
        </mxCell>
        <mxCell id="MZ6gyHuy5aCQJNglztON-37" value="" style="edgeStyle=orthogonalEdgeStyle;rounded=0;orthogonalLoop=1;jettySize=auto;html=1;" edge="1" source="MZ6gyHuy5aCQJNglztON-38" target="MZ6gyHuy5aCQJNglztON-40" parent="1">
          <mxGeometry relative="1" as="geometry" />
        </mxCell>
        <mxCell id="MZ6gyHuy5aCQJNglztON-38" value="스택에 start vertex를 push" style="rounded=0;whiteSpace=wrap;html=1;" vertex="1" parent="1">
          <mxGeometry x="850" y="230" width="140" height="60" as="geometry" />
        </mxCell>
        <mxCell id="MZ6gyHuy5aCQJNglztON-39" value="" style="edgeStyle=orthogonalEdgeStyle;rounded=0;orthogonalLoop=1;jettySize=auto;html=1;" edge="1" source="MZ6gyHuy5aCQJNglztON-40" target="MZ6gyHuy5aCQJNglztON-43" parent="1">
          <mxGeometry relative="1" as="geometry" />
        </mxCell>
        <mxCell id="MZ6gyHuy5aCQJNglztON-40" value="vertex 방문 표시" style="rounded=0;whiteSpace=wrap;html=1;" vertex="1" parent="1">
          <mxGeometry x="850" y="320" width="140" height="60" as="geometry" />
        </mxCell>
        <mxCell id="MZ6gyHuy5aCQJNglztON-41" value="yes" style="edgeStyle=orthogonalEdgeStyle;rounded=0;orthogonalLoop=1;jettySize=auto;html=1;" edge="1" source="MZ6gyHuy5aCQJNglztON-43" target="MZ6gyHuy5aCQJNglztON-45" parent="1">
          <mxGeometry relative="1" as="geometry" />
        </mxCell>
        <mxCell id="MZ6gyHuy5aCQJNglztON-42" value="no" style="edgeStyle=orthogonalEdgeStyle;rounded=0;orthogonalLoop=1;jettySize=auto;html=1;exitX=1;exitY=0.5;exitDx=0;exitDy=0;entryX=0.5;entryY=0;entryDx=0;entryDy=0;" edge="1" source="MZ6gyHuy5aCQJNglztON-43" target="MZ6gyHuy5aCQJNglztON-57" parent="1">
          <mxGeometry x="-0.9514" relative="1" as="geometry">
            <Array as="points">
              <mxPoint x="1010" y="435" />
              <mxPoint x="1010" y="120" />
              <mxPoint x="1360" y="120" />
            </Array>
            <mxPoint as="offset" />
          </mxGeometry>
        </mxCell>
        <mxCell id="MZ6gyHuy5aCQJNglztON-43" value="!stack.empty()" style="rhombus;whiteSpace=wrap;html=1;" vertex="1" parent="1">
          <mxGeometry x="847.5" y="410" width="145" height="50" as="geometry" />
        </mxCell>
        <mxCell id="MZ6gyHuy5aCQJNglztON-44" value="" style="edgeStyle=orthogonalEdgeStyle;rounded=0;orthogonalLoop=1;jettySize=auto;html=1;" edge="1" source="MZ6gyHuy5aCQJNglztON-45" target="MZ6gyHuy5aCQJNglztON-48" parent="1">
          <mxGeometry relative="1" as="geometry">
            <Array as="points">
              <mxPoint x="1020" y="520" />
              <mxPoint x="1020" y="170" />
            </Array>
          </mxGeometry>
        </mxCell>
        <mxCell id="MZ6gyHuy5aCQJNglztON-45" value="stack을 pop" style="rounded=0;whiteSpace=wrap;html=1;" vertex="1" parent="1">
          <mxGeometry x="850" y="490" width="140" height="60" as="geometry" />
        </mxCell>
        <mxCell id="MZ6gyHuy5aCQJNglztON-46" value="yes" style="edgeStyle=orthogonalEdgeStyle;rounded=0;orthogonalLoop=1;jettySize=auto;html=1;" edge="1" source="MZ6gyHuy5aCQJNglztON-48" target="MZ6gyHuy5aCQJNglztON-51" parent="1">
          <mxGeometry relative="1" as="geometry" />
        </mxCell>
        <mxCell id="MZ6gyHuy5aCQJNglztON-47" value="no" style="edgeStyle=orthogonalEdgeStyle;rounded=0;orthogonalLoop=1;jettySize=auto;html=1;exitX=1;exitY=0.5;exitDx=0;exitDy=0;" edge="1" source="MZ6gyHuy5aCQJNglztON-48" parent="1">
          <mxGeometry x="-0.9667" relative="1" as="geometry">
            <mxPoint x="922.0779418945312" y="400" as="targetPoint" />
            <Array as="points">
              <mxPoint x="1270" y="170" />
              <mxPoint x="1270" y="570" />
              <mxPoint x="820" y="570" />
              <mxPoint x="820" y="400" />
            </Array>
            <mxPoint as="offset" />
          </mxGeometry>
        </mxCell>
        <mxCell id="MZ6gyHuy5aCQJNglztON-48" value="해당 vertex에 도달할 &lt;br&gt;수&amp;nbsp; 있는 곳이 남았는가" style="rhombus;whiteSpace=wrap;html=1;" vertex="1" parent="1">
          <mxGeometry x="1030" y="140" width="160" height="60" as="geometry" />
        </mxCell>
        <mxCell id="MZ6gyHuy5aCQJNglztON-49" value="no" style="edgeStyle=orthogonalEdgeStyle;rounded=0;orthogonalLoop=1;jettySize=auto;html=1;" edge="1" source="MZ6gyHuy5aCQJNglztON-51" target="MZ6gyHuy5aCQJNglztON-53" parent="1">
          <mxGeometry relative="1" as="geometry" />
        </mxCell>
        <mxCell id="MZ6gyHuy5aCQJNglztON-50" value="yes" style="edgeStyle=orthogonalEdgeStyle;rounded=0;orthogonalLoop=1;jettySize=auto;html=1;exitX=1;exitY=0.5;exitDx=0;exitDy=0;" edge="1" source="MZ6gyHuy5aCQJNglztON-51" parent="1">
          <mxGeometry x="-0.931" relative="1" as="geometry">
            <mxPoint x="1010" y="520" as="targetPoint" />
            <Array as="points">
              <mxPoint x="1240" y="260" />
              <mxPoint x="1240" y="540" />
              <mxPoint x="1010" y="540" />
            </Array>
            <mxPoint as="offset" />
          </mxGeometry>
        </mxCell>
        <mxCell id="MZ6gyHuy5aCQJNglztON-51" value="해당 vertex를 방문했는가?" style="rhombus;whiteSpace=wrap;html=1;" vertex="1" parent="1">
          <mxGeometry x="1030" y="230" width="160" height="60" as="geometry" />
        </mxCell>
        <mxCell id="MZ6gyHuy5aCQJNglztON-52" value="" style="edgeStyle=orthogonalEdgeStyle;rounded=0;orthogonalLoop=1;jettySize=auto;html=1;" edge="1" source="MZ6gyHuy5aCQJNglztON-53" target="MZ6gyHuy5aCQJNglztON-55" parent="1">
          <mxGeometry relative="1" as="geometry" />
        </mxCell>
        <mxCell id="MZ6gyHuy5aCQJNglztON-53" value="vertex 방문 표시" style="rounded=0;whiteSpace=wrap;html=1;" vertex="1" parent="1">
          <mxGeometry x="1040" y="320" width="140" height="60" as="geometry" />
        </mxCell>
        <mxCell id="MZ6gyHuy5aCQJNglztON-60" value="" style="edgeStyle=orthogonalEdgeStyle;rounded=0;orthogonalLoop=1;jettySize=auto;html=1;" edge="1" parent="1" source="MZ6gyHuy5aCQJNglztON-55" target="MZ6gyHuy5aCQJNglztON-59">
          <mxGeometry relative="1" as="geometry" />
        </mxCell>
        <mxCell id="MZ6gyHuy5aCQJNglztON-55" value="스택에 이전 vertex를 push" style="rounded=0;whiteSpace=wrap;html=1;" vertex="1" parent="1">
          <mxGeometry x="1040" y="395" width="140" height="60" as="geometry" />
        </mxCell>
        <mxCell id="MZ6gyHuy5aCQJNglztON-56" value="" style="edgeStyle=orthogonalEdgeStyle;rounded=0;orthogonalLoop=1;jettySize=auto;html=1;" edge="1" source="MZ6gyHuy5aCQJNglztON-57" target="MZ6gyHuy5aCQJNglztON-58" parent="1">
          <mxGeometry relative="1" as="geometry" />
        </mxCell>
        <mxCell id="MZ6gyHuy5aCQJNglztON-57" value="방문했던 vertex를 &lt;br&gt;순서대로 출력" style="rounded=0;whiteSpace=wrap;html=1;" vertex="1" parent="1">
          <mxGeometry x="1290" y="140" width="140" height="60" as="geometry" />
        </mxCell>
        <mxCell id="MZ6gyHuy5aCQJNglztON-58" value="end" style="strokeWidth=2;html=1;shape=mxgraph.flowchart.terminator;whiteSpace=wrap;" vertex="1" parent="1">
          <mxGeometry x="1310" y="240" width="100" height="60" as="geometry" />
        </mxCell>
        <mxCell id="MZ6gyHuy5aCQJNglztON-61" style="edgeStyle=orthogonalEdgeStyle;rounded=0;orthogonalLoop=1;jettySize=auto;html=1;" edge="1" parent="1" source="MZ6gyHuy5aCQJNglztON-59">
          <mxGeometry relative="1" as="geometry">
            <mxPoint x="1240" y="500" as="targetPoint" />
          </mxGeometry>
        </mxCell>
        <mxCell id="MZ6gyHuy5aCQJNglztON-59" value="스택에 해당 vertex를 push" style="rounded=0;whiteSpace=wrap;html=1;" vertex="1" parent="1">
          <mxGeometry x="1040" y="470" width="140" height="60" as="geometry" />
        </mxCell>
        <mxCell id="MZ6gyHuy5aCQJNglztON-65" value="" style="edgeStyle=orthogonalEdgeStyle;rounded=0;orthogonalLoop=1;jettySize=auto;html=1;" edge="1" parent="1" source="MZ6gyHuy5aCQJNglztON-62" target="MZ6gyHuy5aCQJNglztON-64">
          <mxGeometry relative="1" as="geometry" />
        </mxCell>
        <mxCell id="MZ6gyHuy5aCQJNglztON-62" value="start" style="strokeWidth=2;html=1;shape=mxgraph.flowchart.terminator;whiteSpace=wrap;" vertex="1" parent="1">
          <mxGeometry x="1577.5" y="30" width="100" height="60" as="geometry" />
        </mxCell>
        <mxCell id="MZ6gyHuy5aCQJNglztON-67" value="" style="edgeStyle=orthogonalEdgeStyle;rounded=0;orthogonalLoop=1;jettySize=auto;html=1;" edge="1" parent="1" source="MZ6gyHuy5aCQJNglztON-64" target="MZ6gyHuy5aCQJNglztON-66">
          <mxGeometry relative="1" as="geometry" />
        </mxCell>
        <mxCell id="MZ6gyHuy5aCQJNglztON-64" value="무방향으로 edge에 대한 정보를 맵에 저장" style="rounded=0;whiteSpace=wrap;html=1;" vertex="1" parent="1">
          <mxGeometry x="1557.5" y="120" width="140" height="60" as="geometry" />
        </mxCell>
        <mxCell id="MZ6gyHuy5aCQJNglztON-70" value="" style="edgeStyle=orthogonalEdgeStyle;rounded=0;orthogonalLoop=1;jettySize=auto;html=1;" edge="1" parent="1" source="MZ6gyHuy5aCQJNglztON-66" target="MZ6gyHuy5aCQJNglztON-69">
          <mxGeometry relative="1" as="geometry" />
        </mxCell>
        <mxCell id="MZ6gyHuy5aCQJNglztON-66" value="모든 엣지에 대한 정보를 벡터에 저장" style="rounded=0;whiteSpace=wrap;html=1;" vertex="1" parent="1">
          <mxGeometry x="1557.5" y="210" width="140" height="60" as="geometry" />
        </mxCell>
        <mxCell id="MZ6gyHuy5aCQJNglztON-74" value="" style="edgeStyle=orthogonalEdgeStyle;rounded=0;orthogonalLoop=1;jettySize=auto;html=1;" edge="1" parent="1" source="MZ6gyHuy5aCQJNglztON-69" target="MZ6gyHuy5aCQJNglztON-73">
          <mxGeometry relative="1" as="geometry" />
        </mxCell>
        <mxCell id="MZ6gyHuy5aCQJNglztON-69" value="벡터를 오름차순으로 quick sort" style="rounded=0;whiteSpace=wrap;html=1;" vertex="1" parent="1">
          <mxGeometry x="1557.5" y="300" width="140" height="60" as="geometry" />
        </mxCell>
        <mxCell id="MZ6gyHuy5aCQJNglztON-77" value="no" style="edgeStyle=orthogonalEdgeStyle;rounded=0;orthogonalLoop=1;jettySize=auto;html=1;" edge="1" parent="1" source="MZ6gyHuy5aCQJNglztON-73" target="MZ6gyHuy5aCQJNglztON-76">
          <mxGeometry relative="1" as="geometry" />
        </mxCell>
        <mxCell id="MZ6gyHuy5aCQJNglztON-89" style="edgeStyle=orthogonalEdgeStyle;rounded=0;orthogonalLoop=1;jettySize=auto;html=1;exitX=0;exitY=0.5;exitDx=0;exitDy=0;entryX=0.5;entryY=0;entryDx=0;entryDy=0;" edge="1" parent="1" source="MZ6gyHuy5aCQJNglztON-73" target="MZ6gyHuy5aCQJNglztON-88">
          <mxGeometry relative="1" as="geometry">
            <Array as="points">
              <mxPoint x="1510" y="425" />
              <mxPoint x="1510" y="600" />
              <mxPoint x="2000" y="600" />
              <mxPoint x="2000" y="140" />
              <mxPoint x="2121" y="140" />
            </Array>
          </mxGeometry>
        </mxCell>
        <mxCell id="MZ6gyHuy5aCQJNglztON-73" value="모든 edge를 보았는가 || &lt;br&gt;mst를 형성했는가?" style="rhombus;whiteSpace=wrap;html=1;" vertex="1" parent="1">
          <mxGeometry x="1526.5" y="390" width="202" height="70" as="geometry" />
        </mxCell>
        <mxCell id="MZ6gyHuy5aCQJNglztON-80" style="edgeStyle=orthogonalEdgeStyle;rounded=0;orthogonalLoop=1;jettySize=auto;html=1;exitX=0.5;exitY=1;exitDx=0;exitDy=0;entryX=0.5;entryY=0;entryDx=0;entryDy=0;" edge="1" parent="1" source="MZ6gyHuy5aCQJNglztON-76" target="MZ6gyHuy5aCQJNglztON-79">
          <mxGeometry relative="1" as="geometry">
            <Array as="points">
              <mxPoint x="1627" y="570" />
              <mxPoint x="1750" y="570" />
              <mxPoint x="1750" y="140" />
              <mxPoint x="1861" y="140" />
            </Array>
          </mxGeometry>
        </mxCell>
        <mxCell id="MZ6gyHuy5aCQJNglztON-76" value="추출한 edge에서 start와 end의 부모 정보 가져오기" style="rounded=0;whiteSpace=wrap;html=1;" vertex="1" parent="1">
          <mxGeometry x="1551.25" y="490" width="152.5" height="60" as="geometry" />
        </mxCell>
        <mxCell id="MZ6gyHuy5aCQJNglztON-82" value="yes" style="edgeStyle=orthogonalEdgeStyle;rounded=0;orthogonalLoop=1;jettySize=auto;html=1;" edge="1" parent="1" source="MZ6gyHuy5aCQJNglztON-79" target="MZ6gyHuy5aCQJNglztON-81">
          <mxGeometry relative="1" as="geometry" />
        </mxCell>
        <mxCell id="MZ6gyHuy5aCQJNglztON-87" value="no" style="edgeStyle=orthogonalEdgeStyle;rounded=0;orthogonalLoop=1;jettySize=auto;html=1;exitX=1;exitY=0.5;exitDx=0;exitDy=0;" edge="1" parent="1" source="MZ6gyHuy5aCQJNglztON-79">
          <mxGeometry x="-0.8656" relative="1" as="geometry">
            <mxPoint x="1860" y="425" as="targetPoint" />
            <Array as="points">
              <mxPoint x="1982" y="195" />
              <mxPoint x="1982" y="425" />
            </Array>
            <mxPoint as="offset" />
          </mxGeometry>
        </mxCell>
        <mxCell id="MZ6gyHuy5aCQJNglztON-79" value="둘의 부모가 다른가?" style="rhombus;whiteSpace=wrap;html=1;" vertex="1" parent="1">
          <mxGeometry x="1760" y="160" width="202" height="70" as="geometry" />
        </mxCell>
        <mxCell id="MZ6gyHuy5aCQJNglztON-84" value="" style="edgeStyle=orthogonalEdgeStyle;rounded=0;orthogonalLoop=1;jettySize=auto;html=1;" edge="1" parent="1" source="MZ6gyHuy5aCQJNglztON-81" target="MZ6gyHuy5aCQJNglztON-83">
          <mxGeometry relative="1" as="geometry" />
        </mxCell>
        <mxCell id="MZ6gyHuy5aCQJNglztON-81" value="둘의 부모를 union" style="rounded=0;whiteSpace=wrap;html=1;" vertex="1" parent="1">
          <mxGeometry x="1800" y="250" width="120" height="60" as="geometry" />
        </mxCell>
        <mxCell id="MZ6gyHuy5aCQJNglztON-86" value="" style="edgeStyle=orthogonalEdgeStyle;rounded=0;orthogonalLoop=1;jettySize=auto;html=1;entryX=1;entryY=0.5;entryDx=0;entryDy=0;" edge="1" parent="1" source="MZ6gyHuy5aCQJNglztON-83" target="MZ6gyHuy5aCQJNglztON-73">
          <mxGeometry relative="1" as="geometry">
            <mxPoint x="1860.0588235294117" y="300.02038439138005" as="targetPoint" />
            <Array as="points">
              <mxPoint x="1860" y="425" />
            </Array>
          </mxGeometry>
        </mxCell>
        <mxCell id="MZ6gyHuy5aCQJNglztON-83" value="정답 map 배열에 저장" style="rounded=0;whiteSpace=wrap;html=1;" vertex="1" parent="1">
          <mxGeometry x="1800" y="340" width="120" height="60" as="geometry" />
        </mxCell>
        <mxCell id="MZ6gyHuy5aCQJNglztON-91" value="yes" style="edgeStyle=orthogonalEdgeStyle;rounded=0;orthogonalLoop=1;jettySize=auto;html=1;" edge="1" parent="1" source="MZ6gyHuy5aCQJNglztON-88" target="MZ6gyHuy5aCQJNglztON-90">
          <mxGeometry relative="1" as="geometry">
            <Array as="points">
              <mxPoint x="2121" y="250" />
              <mxPoint x="2121" y="250" />
            </Array>
          </mxGeometry>
        </mxCell>
        <mxCell id="MZ6gyHuy5aCQJNglztON-97" value="no" style="edgeStyle=orthogonalEdgeStyle;rounded=0;orthogonalLoop=1;jettySize=auto;html=1;exitX=1;exitY=0.5;exitDx=0;exitDy=0;" edge="1" parent="1" source="MZ6gyHuy5aCQJNglztON-88">
          <mxGeometry x="-0.8674" relative="1" as="geometry">
            <mxPoint x="2120" y="440" as="targetPoint" />
            <Array as="points">
              <mxPoint x="2242" y="205" />
              <mxPoint x="2242" y="440" />
            </Array>
            <mxPoint as="offset" />
          </mxGeometry>
        </mxCell>
        <mxCell id="MZ6gyHuy5aCQJNglztON-88" value="mst를 형성했는가?" style="rhombus;whiteSpace=wrap;html=1;" vertex="1" parent="1">
          <mxGeometry x="2020" y="170" width="202" height="70" as="geometry" />
        </mxCell>
        <mxCell id="MZ6gyHuy5aCQJNglztON-93" value="" style="edgeStyle=orthogonalEdgeStyle;rounded=0;orthogonalLoop=1;jettySize=auto;html=1;" edge="1" parent="1" source="MZ6gyHuy5aCQJNglztON-90" target="MZ6gyHuy5aCQJNglztON-92">
          <mxGeometry relative="1" as="geometry" />
        </mxCell>
        <mxCell id="MZ6gyHuy5aCQJNglztON-90" value="각 vertex에 정답 배열에서 연결된 edge 출력" style="rounded=0;whiteSpace=wrap;html=1;" vertex="1" parent="1">
          <mxGeometry x="2061" y="270" width="120" height="60" as="geometry" />
        </mxCell>
        <mxCell id="MZ6gyHuy5aCQJNglztON-92" value="cost 출력" style="rounded=0;whiteSpace=wrap;html=1;" vertex="1" parent="1">
          <mxGeometry x="2061" y="360" width="120" height="60" as="geometry" />
        </mxCell>
        <mxCell id="MZ6gyHuy5aCQJNglztON-94" value="end" style="strokeWidth=2;html=1;shape=mxgraph.flowchart.terminator;whiteSpace=wrap;" vertex="1" parent="1">
          <mxGeometry x="2071" y="460" width="100" height="60" as="geometry" />
        </mxCell>
        <mxCell id="MZ6gyHuy5aCQJNglztON-96" style="edgeStyle=orthogonalEdgeStyle;rounded=0;orthogonalLoop=1;jettySize=auto;html=1;entryX=0.5;entryY=0;entryDx=0;entryDy=0;entryPerimeter=0;" edge="1" parent="1" source="MZ6gyHuy5aCQJNglztON-92" target="MZ6gyHuy5aCQJNglztON-94">
          <mxGeometry relative="1" as="geometry" />
        </mxCell>
        <mxCell id="MZ6gyHuy5aCQJNglztON-101" value="" style="edgeStyle=orthogonalEdgeStyle;rounded=0;orthogonalLoop=1;jettySize=auto;html=1;" edge="1" parent="1" source="MZ6gyHuy5aCQJNglztON-99" target="MZ6gyHuy5aCQJNglztON-100">
          <mxGeometry relative="1" as="geometry" />
        </mxCell>
        <mxCell id="MZ6gyHuy5aCQJNglztON-99" value="start" style="strokeWidth=2;html=1;shape=mxgraph.flowchart.terminator;whiteSpace=wrap;" vertex="1" parent="1">
          <mxGeometry x="150" y="630" width="100" height="60" as="geometry" />
        </mxCell>
        <mxCell id="MZ6gyHuy5aCQJNglztON-103" value="yes" style="edgeStyle=orthogonalEdgeStyle;rounded=0;orthogonalLoop=1;jettySize=auto;html=1;" edge="1" parent="1" source="MZ6gyHuy5aCQJNglztON-100" target="MZ6gyHuy5aCQJNglztON-102">
          <mxGeometry relative="1" as="geometry" />
        </mxCell>
        <mxCell id="MZ6gyHuy5aCQJNglztON-120" value="no" style="edgeStyle=orthogonalEdgeStyle;rounded=0;orthogonalLoop=1;jettySize=auto;html=1;exitX=0;exitY=0.5;exitDx=0;exitDy=0;" edge="1" parent="1" source="MZ6gyHuy5aCQJNglztON-100">
          <mxGeometry x="-0.7944" relative="1" as="geometry">
            <mxPoint x="660" y="910" as="targetPoint" />
            <Array as="points">
              <mxPoint x="270" y="760" />
              <mxPoint x="270" y="650" />
              <mxPoint x="760" y="650" />
              <mxPoint x="760" y="910" />
            </Array>
            <mxPoint as="offset" />
          </mxGeometry>
        </mxCell>
        <mxCell id="MZ6gyHuy5aCQJNglztON-100" value="low &amp;lt; high" style="rhombus;whiteSpace=wrap;html=1;" vertex="1" parent="1">
          <mxGeometry x="160" y="720" width="80" height="80" as="geometry" />
        </mxCell>
        <mxCell id="MZ6gyHuy5aCQJNglztON-105" value="yes" style="edgeStyle=orthogonalEdgeStyle;rounded=0;orthogonalLoop=1;jettySize=auto;html=1;" edge="1" parent="1" source="MZ6gyHuy5aCQJNglztON-102" target="MZ6gyHuy5aCQJNglztON-104">
          <mxGeometry relative="1" as="geometry" />
        </mxCell>
        <mxCell id="MZ6gyHuy5aCQJNglztON-102" value="high - low&amp;nbsp; + 1 &amp;lt;= segment size" style="rhombus;whiteSpace=wrap;html=1;" vertex="1" parent="1">
          <mxGeometry x="100" y="830" width="200" height="70" as="geometry" />
        </mxCell>
        <mxCell id="MZ6gyHuy5aCQJNglztON-111" style="edgeStyle=orthogonalEdgeStyle;rounded=0;orthogonalLoop=1;jettySize=auto;html=1;exitX=1;exitY=0.5;exitDx=0;exitDy=0;entryX=0;entryY=0.5;entryDx=0;entryDy=0;" edge="1" parent="1" source="MZ6gyHuy5aCQJNglztON-104" target="MZ6gyHuy5aCQJNglztON-106">
          <mxGeometry relative="1" as="geometry">
            <Array as="points">
              <mxPoint x="310" y="960" />
              <mxPoint x="310" y="735" />
            </Array>
          </mxGeometry>
        </mxCell>
        <mxCell id="MZ6gyHuy5aCQJNglztON-104" value="insertion sort()" style="rounded=0;whiteSpace=wrap;html=1;" vertex="1" parent="1">
          <mxGeometry x="140" y="930" width="120" height="60" as="geometry" />
        </mxCell>
        <mxCell id="MZ6gyHuy5aCQJNglztON-109" value="no" style="edgeStyle=orthogonalEdgeStyle;rounded=0;orthogonalLoop=1;jettySize=auto;html=1;" edge="1" parent="1" source="MZ6gyHuy5aCQJNglztON-106" target="MZ6gyHuy5aCQJNglztON-108">
          <mxGeometry relative="1" as="geometry" />
        </mxCell>
        <mxCell id="MZ6gyHuy5aCQJNglztON-113" value="yes" style="edgeStyle=orthogonalEdgeStyle;rounded=0;orthogonalLoop=1;jettySize=auto;html=1;exitX=1;exitY=0.5;exitDx=0;exitDy=0;entryX=0.5;entryY=0;entryDx=0;entryDy=0;" edge="1" parent="1" source="MZ6gyHuy5aCQJNglztON-106" target="MZ6gyHuy5aCQJNglztON-110">
          <mxGeometry x="-0.8125" relative="1" as="geometry">
            <Array as="points">
              <mxPoint x="540" y="735" />
              <mxPoint x="540" y="870" />
              <mxPoint x="415" y="870" />
            </Array>
            <mxPoint as="offset" />
          </mxGeometry>
        </mxCell>
        <mxCell id="MZ6gyHuy5aCQJNglztON-106" value="pivot 검출" style="rhombus;whiteSpace=wrap;html=1;" vertex="1" parent="1">
          <mxGeometry x="330" y="700" width="170" height="70" as="geometry" />
        </mxCell>
        <mxCell id="MZ6gyHuy5aCQJNglztON-112" value="" style="edgeStyle=orthogonalEdgeStyle;rounded=0;orthogonalLoop=1;jettySize=auto;html=1;entryX=0.5;entryY=0;entryDx=0;entryDy=0;" edge="1" parent="1" source="MZ6gyHuy5aCQJNglztON-108" target="MZ6gyHuy5aCQJNglztON-106">
          <mxGeometry relative="1" as="geometry">
            <Array as="points">
              <mxPoint x="520" y="830" />
              <mxPoint x="520" y="680" />
              <mxPoint x="415" y="680" />
            </Array>
          </mxGeometry>
        </mxCell>
        <mxCell id="MZ6gyHuy5aCQJNglztON-108" value="swap" style="rounded=0;whiteSpace=wrap;html=1;" vertex="1" parent="1">
          <mxGeometry x="355" y="800" width="120" height="60" as="geometry" />
        </mxCell>
        <mxCell id="MZ6gyHuy5aCQJNglztON-116" style="edgeStyle=orthogonalEdgeStyle;rounded=0;orthogonalLoop=1;jettySize=auto;html=1;exitX=0.5;exitY=1;exitDx=0;exitDy=0;entryX=0.5;entryY=0;entryDx=0;entryDy=0;" edge="1" parent="1" source="MZ6gyHuy5aCQJNglztON-110" target="MZ6gyHuy5aCQJNglztON-114">
          <mxGeometry relative="1" as="geometry">
            <Array as="points">
              <mxPoint x="415" y="970" />
              <mxPoint x="570" y="970" />
              <mxPoint x="570" y="720" />
              <mxPoint x="660" y="720" />
            </Array>
          </mxGeometry>
        </mxCell>
        <mxCell id="MZ6gyHuy5aCQJNglztON-110" value="swap" style="rounded=0;whiteSpace=wrap;html=1;" vertex="1" parent="1">
          <mxGeometry x="355" y="890" width="120" height="60" as="geometry" />
        </mxCell>
        <mxCell id="MZ6gyHuy5aCQJNglztON-117" value="" style="edgeStyle=orthogonalEdgeStyle;rounded=0;orthogonalLoop=1;jettySize=auto;html=1;" edge="1" parent="1" source="MZ6gyHuy5aCQJNglztON-114" target="MZ6gyHuy5aCQJNglztON-115">
          <mxGeometry relative="1" as="geometry" />
        </mxCell>
        <mxCell id="MZ6gyHuy5aCQJNglztON-114" value="quicksort(arr, low, j - 1);" style="rounded=0;whiteSpace=wrap;html=1;" vertex="1" parent="1">
          <mxGeometry x="600" y="740" width="120" height="60" as="geometry" />
        </mxCell>
        <mxCell id="MZ6gyHuy5aCQJNglztON-119" value="" style="edgeStyle=orthogonalEdgeStyle;rounded=0;orthogonalLoop=1;jettySize=auto;html=1;" edge="1" parent="1" source="MZ6gyHuy5aCQJNglztON-115" target="MZ6gyHuy5aCQJNglztON-118">
          <mxGeometry relative="1" as="geometry" />
        </mxCell>
        <mxCell id="MZ6gyHuy5aCQJNglztON-115" value="quicksort(arr, j + 1, high);" style="rounded=0;whiteSpace=wrap;html=1;" vertex="1" parent="1">
          <mxGeometry x="600" y="830" width="120" height="60" as="geometry" />
        </mxCell>
        <mxCell id="MZ6gyHuy5aCQJNglztON-118" value="end" style="strokeWidth=2;html=1;shape=mxgraph.flowchart.terminator;whiteSpace=wrap;" vertex="1" parent="1">
          <mxGeometry x="610" y="930" width="100" height="60" as="geometry" />
        </mxCell>
        <mxCell id="MZ6gyHuy5aCQJNglztON-123" value="" style="edgeStyle=orthogonalEdgeStyle;rounded=0;orthogonalLoop=1;jettySize=auto;html=1;" edge="1" parent="1" source="MZ6gyHuy5aCQJNglztON-121" target="MZ6gyHuy5aCQJNglztON-122">
          <mxGeometry relative="1" as="geometry" />
        </mxCell>
        <mxCell id="MZ6gyHuy5aCQJNglztON-121" value="start" style="strokeWidth=2;html=1;shape=mxgraph.flowchart.terminator;whiteSpace=wrap;" vertex="1" parent="1">
          <mxGeometry x="870" y="620" width="100" height="60" as="geometry" />
        </mxCell>
        <mxCell id="MZ6gyHuy5aCQJNglztON-127" value="yes" style="edgeStyle=orthogonalEdgeStyle;rounded=0;orthogonalLoop=1;jettySize=auto;html=1;" edge="1" parent="1" source="MZ6gyHuy5aCQJNglztON-122" target="MZ6gyHuy5aCQJNglztON-125">
          <mxGeometry relative="1" as="geometry" />
        </mxCell>
        <mxCell id="MZ6gyHuy5aCQJNglztON-142" value="no" style="edgeStyle=orthogonalEdgeStyle;rounded=0;orthogonalLoop=1;jettySize=auto;html=1;exitX=0;exitY=0.5;exitDx=0;exitDy=0;" edge="1" parent="1" source="MZ6gyHuy5aCQJNglztON-122">
          <mxGeometry x="-0.8861" relative="1" as="geometry">
            <mxPoint x="1340" y="980" as="targetPoint" />
            <Array as="points">
              <mxPoint x="805" y="745" />
              <mxPoint x="805" y="980" />
            </Array>
            <mxPoint as="offset" />
          </mxGeometry>
        </mxCell>
        <mxCell id="MZ6gyHuy5aCQJNglztON-122" value="for (int i = low + 1; i &amp;lt;= high; i++)" style="rhombus;whiteSpace=wrap;html=1;" vertex="1" parent="1">
          <mxGeometry x="825" y="710" width="190" height="70" as="geometry" />
        </mxCell>
        <mxCell id="MZ6gyHuy5aCQJNglztON-130" value="" style="edgeStyle=orthogonalEdgeStyle;rounded=0;orthogonalLoop=1;jettySize=auto;html=1;" edge="1" parent="1" source="MZ6gyHuy5aCQJNglztON-125" target="MZ6gyHuy5aCQJNglztON-128">
          <mxGeometry relative="1" as="geometry" />
        </mxCell>
        <mxCell id="MZ6gyHuy5aCQJNglztON-125" value="key = arr[i]" style="rounded=0;whiteSpace=wrap;html=1;" vertex="1" parent="1">
          <mxGeometry x="860" y="810" width="120" height="60" as="geometry" />
        </mxCell>
        <mxCell id="MZ6gyHuy5aCQJNglztON-132" style="edgeStyle=orthogonalEdgeStyle;rounded=0;orthogonalLoop=1;jettySize=auto;html=1;exitX=1;exitY=0.5;exitDx=0;exitDy=0;entryX=0;entryY=0.5;entryDx=0;entryDy=0;" edge="1" parent="1" source="MZ6gyHuy5aCQJNglztON-128" target="MZ6gyHuy5aCQJNglztON-131">
          <mxGeometry relative="1" as="geometry">
            <Array as="points">
              <mxPoint x="1030" y="930" />
              <mxPoint x="1030" y="745" />
            </Array>
          </mxGeometry>
        </mxCell>
        <mxCell id="MZ6gyHuy5aCQJNglztON-128" value="j = i - 1" style="rounded=0;whiteSpace=wrap;html=1;" vertex="1" parent="1">
          <mxGeometry x="860" y="900" width="120" height="60" as="geometry" />
        </mxCell>
        <mxCell id="MZ6gyHuy5aCQJNglztON-136" value="yes" style="edgeStyle=orthogonalEdgeStyle;rounded=0;orthogonalLoop=1;jettySize=auto;html=1;" edge="1" parent="1" source="MZ6gyHuy5aCQJNglztON-131" target="MZ6gyHuy5aCQJNglztON-134">
          <mxGeometry relative="1" as="geometry" />
        </mxCell>
        <mxCell id="MZ6gyHuy5aCQJNglztON-139" value="no" style="edgeStyle=orthogonalEdgeStyle;rounded=0;orthogonalLoop=1;jettySize=auto;html=1;" edge="1" parent="1" source="MZ6gyHuy5aCQJNglztON-131" target="MZ6gyHuy5aCQJNglztON-138">
          <mxGeometry relative="1" as="geometry" />
        </mxCell>
        <mxCell id="MZ6gyHuy5aCQJNglztON-131" value="&amp;nbsp;while (j &amp;gt;= low &amp;amp;&amp;amp; key &amp;lt; arr[j])" style="rhombus;whiteSpace=wrap;html=1;" vertex="1" parent="1">
          <mxGeometry x="1060" y="710" width="190" height="70" as="geometry" />
        </mxCell>
        <mxCell id="MZ6gyHuy5aCQJNglztON-133" value="" style="edgeStyle=orthogonalEdgeStyle;rounded=0;orthogonalLoop=1;jettySize=auto;html=1;" edge="1" source="MZ6gyHuy5aCQJNglztON-134" target="MZ6gyHuy5aCQJNglztON-135" parent="1">
          <mxGeometry relative="1" as="geometry" />
        </mxCell>
        <mxCell id="MZ6gyHuy5aCQJNglztON-134" value="arr[j + 1] = arr[j]" style="rounded=0;whiteSpace=wrap;html=1;" vertex="1" parent="1">
          <mxGeometry x="1095" y="810" width="120" height="60" as="geometry" />
        </mxCell>
        <mxCell id="MZ6gyHuy5aCQJNglztON-137" style="edgeStyle=orthogonalEdgeStyle;rounded=0;orthogonalLoop=1;jettySize=auto;html=1;exitX=0.5;exitY=1;exitDx=0;exitDy=0;" edge="1" parent="1" source="MZ6gyHuy5aCQJNglztON-135">
          <mxGeometry relative="1" as="geometry">
            <mxPoint x="1030" y="930" as="targetPoint" />
            <Array as="points">
              <mxPoint x="1155" y="970" />
              <mxPoint x="1030" y="970" />
            </Array>
          </mxGeometry>
        </mxCell>
        <mxCell id="MZ6gyHuy5aCQJNglztON-135" value="j--" style="rounded=0;whiteSpace=wrap;html=1;" vertex="1" parent="1">
          <mxGeometry x="1095" y="900" width="120" height="60" as="geometry" />
        </mxCell>
        <mxCell id="MZ6gyHuy5aCQJNglztON-141" value="" style="edgeStyle=orthogonalEdgeStyle;rounded=0;orthogonalLoop=1;jettySize=auto;html=1;" edge="1" parent="1" source="MZ6gyHuy5aCQJNglztON-138" target="MZ6gyHuy5aCQJNglztON-140">
          <mxGeometry relative="1" as="geometry" />
        </mxCell>
        <mxCell id="MZ6gyHuy5aCQJNglztON-138" value="arr[j + 1] = key" style="rounded=0;whiteSpace=wrap;html=1;" vertex="1" parent="1">
          <mxGeometry x="1280" y="715" width="120" height="60" as="geometry" />
        </mxCell>
        <mxCell id="MZ6gyHuy5aCQJNglztON-140" value="end" style="strokeWidth=2;html=1;shape=mxgraph.flowchart.terminator;whiteSpace=wrap;" vertex="1" parent="1">
          <mxGeometry x="1290" y="1000" width="100" height="60" as="geometry" />
        </mxCell>
        <mxCell id="MZ6gyHuy5aCQJNglztON-149" value="" style="edgeStyle=orthogonalEdgeStyle;rounded=0;orthogonalLoop=1;jettySize=auto;html=1;" edge="1" parent="1" source="MZ6gyHuy5aCQJNglztON-143" target="MZ6gyHuy5aCQJNglztON-148">
          <mxGeometry relative="1" as="geometry" />
        </mxCell>
        <mxCell id="MZ6gyHuy5aCQJNglztON-143" value="start" style="strokeWidth=2;html=1;shape=mxgraph.flowchart.terminator;whiteSpace=wrap;" vertex="1" parent="1">
          <mxGeometry x="150" y="1050" width="100" height="60" as="geometry" />
        </mxCell>
        <mxCell id="MZ6gyHuy5aCQJNglztON-152" value="" style="edgeStyle=orthogonalEdgeStyle;rounded=0;orthogonalLoop=1;jettySize=auto;html=1;" edge="1" parent="1" source="MZ6gyHuy5aCQJNglztON-146" target="MZ6gyHuy5aCQJNglztON-151">
          <mxGeometry relative="1" as="geometry" />
        </mxCell>
        <mxCell id="MZ6gyHuy5aCQJNglztON-146" value="option에 따른 vertex map 배열 생성과 data 복사" style="rounded=0;whiteSpace=wrap;html=1;" vertex="1" parent="1">
          <mxGeometry x="130" y="1250" width="140" height="60" as="geometry" />
        </mxCell>
        <mxCell id="MZ6gyHuy5aCQJNglztON-150" value="" style="edgeStyle=orthogonalEdgeStyle;rounded=0;orthogonalLoop=1;jettySize=auto;html=1;" edge="1" parent="1" source="MZ6gyHuy5aCQJNglztON-148" target="MZ6gyHuy5aCQJNglztON-146">
          <mxGeometry relative="1" as="geometry" />
        </mxCell>
        <mxCell id="MZ6gyHuy5aCQJNglztON-148" value="dist 배열을 inf로 초기화" style="rounded=0;whiteSpace=wrap;html=1;" vertex="1" parent="1">
          <mxGeometry x="130" y="1150" width="140" height="60" as="geometry" />
        </mxCell>
        <mxCell id="MZ6gyHuy5aCQJNglztON-154" value="no" style="edgeStyle=orthogonalEdgeStyle;rounded=0;orthogonalLoop=1;jettySize=auto;html=1;exitX=0.5;exitY=1;exitDx=0;exitDy=0;entryX=0.5;entryY=0;entryDx=0;entryDy=0;" edge="1" parent="1" source="MZ6gyHuy5aCQJNglztON-151" target="MZ6gyHuy5aCQJNglztON-153">
          <mxGeometry x="-0.9316" relative="1" as="geometry">
            <mxPoint as="offset" />
          </mxGeometry>
        </mxCell>
        <mxCell id="MZ6gyHuy5aCQJNglztON-169" value="yes" style="edgeStyle=orthogonalEdgeStyle;rounded=0;orthogonalLoop=1;jettySize=auto;html=1;exitX=0;exitY=0.5;exitDx=0;exitDy=0;" edge="1" parent="1" source="MZ6gyHuy5aCQJNglztON-151">
          <mxGeometry x="-0.9357" relative="1" as="geometry">
            <mxPoint x="702.237783578726" y="1230" as="targetPoint" />
            <Array as="points">
              <mxPoint x="110" y="1380" />
              <mxPoint x="110" y="1620" />
              <mxPoint x="640" y="1620" />
              <mxPoint x="640" y="1230" />
            </Array>
            <mxPoint as="offset" />
          </mxGeometry>
        </mxCell>
        <mxCell id="MZ6gyHuy5aCQJNglztON-151" value="음수 가중치가 있는가?" style="rhombus;whiteSpace=wrap;html=1;" vertex="1" parent="1">
          <mxGeometry x="130" y="1350" width="140" height="60" as="geometry" />
        </mxCell>
        <mxCell id="MZ6gyHuy5aCQJNglztON-156" value="yes" style="edgeStyle=orthogonalEdgeStyle;rounded=0;orthogonalLoop=1;jettySize=auto;html=1;" edge="1" parent="1" source="MZ6gyHuy5aCQJNglztON-153" target="MZ6gyHuy5aCQJNglztON-155">
          <mxGeometry relative="1" as="geometry" />
        </mxCell>
        <mxCell id="MZ6gyHuy5aCQJNglztON-166" value="no" style="edgeStyle=orthogonalEdgeStyle;rounded=0;orthogonalLoop=1;jettySize=auto;html=1;" edge="1" parent="1" source="MZ6gyHuy5aCQJNglztON-153" target="MZ6gyHuy5aCQJNglztON-165">
          <mxGeometry relative="1" as="geometry" />
        </mxCell>
        <mxCell id="MZ6gyHuy5aCQJNglztON-153" value="&amp;nbsp;for (int i = 0; i &amp;lt; graph-&amp;gt;getSize() - 1; i++)" style="rhombus;whiteSpace=wrap;html=1;" vertex="1" parent="1">
          <mxGeometry x="310" y="1150" width="270" height="60" as="geometry" />
        </mxCell>
        <mxCell id="MZ6gyHuy5aCQJNglztON-158" value="" style="edgeStyle=orthogonalEdgeStyle;rounded=0;orthogonalLoop=1;jettySize=auto;html=1;" edge="1" parent="1" source="MZ6gyHuy5aCQJNglztON-155" target="MZ6gyHuy5aCQJNglztON-157">
          <mxGeometry relative="1" as="geometry" />
        </mxCell>
        <mxCell id="MZ6gyHuy5aCQJNglztON-155" value="가장 weight가 작은 edge가 있는 vertex를 검출" style="rounded=0;whiteSpace=wrap;html=1;" vertex="1" parent="1">
          <mxGeometry x="375" y="1245" width="140" height="60" as="geometry" />
        </mxCell>
        <mxCell id="MZ6gyHuy5aCQJNglztON-160" value="" style="edgeStyle=orthogonalEdgeStyle;rounded=0;orthogonalLoop=1;jettySize=auto;html=1;" edge="1" parent="1" source="MZ6gyHuy5aCQJNglztON-157" target="MZ6gyHuy5aCQJNglztON-159">
          <mxGeometry relative="1" as="geometry" />
        </mxCell>
        <mxCell id="MZ6gyHuy5aCQJNglztON-157" value="이전 vertex의 경로를 추출" style="rounded=0;whiteSpace=wrap;html=1;" vertex="1" parent="1">
          <mxGeometry x="372.5" y="1338" width="145" height="60" as="geometry" />
        </mxCell>
        <mxCell id="MZ6gyHuy5aCQJNglztON-163" value="" style="edgeStyle=orthogonalEdgeStyle;rounded=0;orthogonalLoop=1;jettySize=auto;html=1;" edge="1" parent="1" source="MZ6gyHuy5aCQJNglztON-159" target="MZ6gyHuy5aCQJNglztON-161">
          <mxGeometry relative="1" as="geometry" />
        </mxCell>
        <mxCell id="MZ6gyHuy5aCQJNglztON-159" value="현재 vertex를 경로에 저장" style="rounded=0;whiteSpace=wrap;html=1;" vertex="1" parent="1">
          <mxGeometry x="372.5" y="1430" width="145" height="60" as="geometry" />
        </mxCell>
        <mxCell id="MZ6gyHuy5aCQJNglztON-164" style="edgeStyle=orthogonalEdgeStyle;rounded=0;orthogonalLoop=1;jettySize=auto;html=1;exitX=0.5;exitY=1;exitDx=0;exitDy=0;" edge="1" parent="1" source="MZ6gyHuy5aCQJNglztON-161">
          <mxGeometry relative="1" as="geometry">
            <mxPoint x="290" y="1430" as="targetPoint" />
          </mxGeometry>
        </mxCell>
        <mxCell id="MZ6gyHuy5aCQJNglztON-161" value="방문하지 않은 vertex에 대해 거리 업데이트" style="rounded=0;whiteSpace=wrap;html=1;" vertex="1" parent="1">
          <mxGeometry x="372.5" y="1520" width="145" height="60" as="geometry" />
        </mxCell>
        <mxCell id="MZ6gyHuy5aCQJNglztON-168" value="" style="edgeStyle=orthogonalEdgeStyle;rounded=0;orthogonalLoop=1;jettySize=auto;html=1;" edge="1" parent="1" source="MZ6gyHuy5aCQJNglztON-165" target="MZ6gyHuy5aCQJNglztON-167">
          <mxGeometry relative="1" as="geometry" />
        </mxCell>
        <mxCell id="MZ6gyHuy5aCQJNglztON-165" value="모든 vertex에 대해&lt;br&gt;distant와 경로 출력" style="rounded=0;whiteSpace=wrap;html=1;" vertex="1" parent="1">
          <mxGeometry x="630" y="1150" width="145" height="60" as="geometry" />
        </mxCell>
        <mxCell id="MZ6gyHuy5aCQJNglztON-167" value="end" style="strokeWidth=2;html=1;shape=mxgraph.flowchart.terminator;whiteSpace=wrap;" vertex="1" parent="1">
          <mxGeometry x="653" y="1275" width="100" height="60" as="geometry" />
        </mxCell>
        <mxCell id="MZ6gyHuy5aCQJNglztON-172" value="" style="edgeStyle=orthogonalEdgeStyle;rounded=0;orthogonalLoop=1;jettySize=auto;html=1;" edge="1" parent="1" source="MZ6gyHuy5aCQJNglztON-170" target="MZ6gyHuy5aCQJNglztON-171">
          <mxGeometry relative="1" as="geometry" />
        </mxCell>
        <mxCell id="MZ6gyHuy5aCQJNglztON-170" value="start" style="strokeWidth=2;html=1;shape=mxgraph.flowchart.terminator;whiteSpace=wrap;" vertex="1" parent="1">
          <mxGeometry x="980" y="1060" width="100" height="60" as="geometry" />
        </mxCell>
        <mxCell id="MZ6gyHuy5aCQJNglztON-174" value="" style="edgeStyle=orthogonalEdgeStyle;rounded=0;orthogonalLoop=1;jettySize=auto;html=1;" edge="1" parent="1" source="MZ6gyHuy5aCQJNglztON-171" target="MZ6gyHuy5aCQJNglztON-173">
          <mxGeometry relative="1" as="geometry" />
        </mxCell>
        <mxCell id="MZ6gyHuy5aCQJNglztON-171" value="option에 따른 vertex map 배열 생성과 data 복사" style="rounded=0;whiteSpace=wrap;html=1;" vertex="1" parent="1">
          <mxGeometry x="960" y="1150" width="140" height="60" as="geometry" />
        </mxCell>
        <mxCell id="MZ6gyHuy5aCQJNglztON-177" value="" style="edgeStyle=orthogonalEdgeStyle;rounded=0;orthogonalLoop=1;jettySize=auto;html=1;" edge="1" parent="1" source="MZ6gyHuy5aCQJNglztON-173" target="MZ6gyHuy5aCQJNglztON-176">
          <mxGeometry relative="1" as="geometry" />
        </mxCell>
        <mxCell id="MZ6gyHuy5aCQJNglztON-173" value="모든 vertex의 거리를 inf와 prev를 초기화" style="rounded=0;whiteSpace=wrap;html=1;" vertex="1" parent="1">
          <mxGeometry x="960" y="1240" width="140" height="60" as="geometry" />
        </mxCell>
        <mxCell id="MZ6gyHuy5aCQJNglztON-180" value="no" style="edgeStyle=orthogonalEdgeStyle;rounded=0;orthogonalLoop=1;jettySize=auto;html=1;" edge="1" parent="1" source="MZ6gyHuy5aCQJNglztON-176" target="MZ6gyHuy5aCQJNglztON-179">
          <mxGeometry relative="1" as="geometry" />
        </mxCell>
        <mxCell id="MZ6gyHuy5aCQJNglztON-189" value="yes" style="edgeStyle=orthogonalEdgeStyle;rounded=0;orthogonalLoop=1;jettySize=auto;html=1;exitX=1;exitY=0.5;exitDx=0;exitDy=0;entryX=0.5;entryY=0;entryDx=0;entryDy=0;" edge="1" parent="1" source="MZ6gyHuy5aCQJNglztON-176" target="MZ6gyHuy5aCQJNglztON-183">
          <mxGeometry x="-0.9259" y="-2" relative="1" as="geometry">
            <Array as="points">
              <mxPoint x="1155" y="1368" />
              <mxPoint x="1155" y="1610" />
              <mxPoint x="1030" y="1610" />
            </Array>
            <mxPoint as="offset" />
          </mxGeometry>
        </mxCell>
        <mxCell id="MZ6gyHuy5aCQJNglztON-176" value="모든 vertex를 방문했는가" style="rhombus;whiteSpace=wrap;html=1;" vertex="1" parent="1">
          <mxGeometry x="925" y="1332" width="210" height="72" as="geometry" />
        </mxCell>
        <mxCell id="MZ6gyHuy5aCQJNglztON-182" value="no" style="edgeStyle=orthogonalEdgeStyle;rounded=0;orthogonalLoop=1;jettySize=auto;html=1;" edge="1" parent="1" source="MZ6gyHuy5aCQJNglztON-179" target="MZ6gyHuy5aCQJNglztON-181">
          <mxGeometry relative="1" as="geometry" />
        </mxCell>
        <mxCell id="MZ6gyHuy5aCQJNglztON-190" style="edgeStyle=orthogonalEdgeStyle;rounded=0;orthogonalLoop=1;jettySize=auto;html=1;exitX=0;exitY=0.5;exitDx=0;exitDy=0;" edge="1" parent="1" source="MZ6gyHuy5aCQJNglztON-179">
          <mxGeometry relative="1" as="geometry">
            <mxPoint x="1030" y="1310" as="targetPoint" />
            <Array as="points">
              <mxPoint x="905" y="1466" />
              <mxPoint x="905" y="1310" />
            </Array>
          </mxGeometry>
        </mxCell>
        <mxCell id="MZ6gyHuy5aCQJNglztON-179" value="해당 vertex의 edge를 보았는가" style="rhombus;whiteSpace=wrap;html=1;" vertex="1" parent="1">
          <mxGeometry x="925" y="1430" width="210" height="72" as="geometry" />
        </mxCell>
        <mxCell id="MZ6gyHuy5aCQJNglztON-188" style="edgeStyle=orthogonalEdgeStyle;rounded=0;orthogonalLoop=1;jettySize=auto;html=1;exitX=1;exitY=0.5;exitDx=0;exitDy=0;" edge="1" parent="1" source="MZ6gyHuy5aCQJNglztON-181">
          <mxGeometry relative="1" as="geometry">
            <mxPoint x="1030" y="1420" as="targetPoint" />
            <Array as="points">
              <mxPoint x="880" y="1570" />
              <mxPoint x="880" y="1420" />
            </Array>
          </mxGeometry>
        </mxCell>
        <mxCell id="MZ6gyHuy5aCQJNglztON-181" value="distant 업데이트가 가능한 경우 업데이트" style="rounded=0;whiteSpace=wrap;html=1;" vertex="1" parent="1">
          <mxGeometry x="960" y="1540" width="140" height="60" as="geometry" />
        </mxCell>
        <mxCell id="MZ6gyHuy5aCQJNglztON-187" value="no" style="edgeStyle=orthogonalEdgeStyle;rounded=0;orthogonalLoop=1;jettySize=auto;html=1;exitX=1;exitY=0.5;exitDx=0;exitDy=0;entryX=0;entryY=0.75;entryDx=0;entryDy=0;" edge="1" parent="1" source="MZ6gyHuy5aCQJNglztON-183" target="MZ6gyHuy5aCQJNglztON-186">
          <mxGeometry x="-0.9438" y="-6" relative="1" as="geometry">
            <Array as="points">
              <mxPoint x="1180" y="1664" />
              <mxPoint x="1180" y="1195" />
            </Array>
            <mxPoint as="offset" />
          </mxGeometry>
        </mxCell>
        <mxCell id="MZ6gyHuy5aCQJNglztON-183" value="음수 사이클이 존재했는가" style="rhombus;whiteSpace=wrap;html=1;" vertex="1" parent="1">
          <mxGeometry x="925" y="1628" width="210" height="72" as="geometry" />
        </mxCell>
        <mxCell id="MZ6gyHuy5aCQJNglztON-192" value="" style="edgeStyle=orthogonalEdgeStyle;rounded=0;orthogonalLoop=1;jettySize=auto;html=1;" edge="1" parent="1" source="MZ6gyHuy5aCQJNglztON-186" target="MZ6gyHuy5aCQJNglztON-191">
          <mxGeometry relative="1" as="geometry" />
        </mxCell>
        <mxCell id="MZ6gyHuy5aCQJNglztON-186" value="경로들을 stack에 저장" style="rounded=0;whiteSpace=wrap;html=1;" vertex="1" parent="1">
          <mxGeometry x="1200" y="1150" width="140" height="60" as="geometry" />
        </mxCell>
        <mxCell id="MZ6gyHuy5aCQJNglztON-194" value="" style="edgeStyle=orthogonalEdgeStyle;rounded=0;orthogonalLoop=1;jettySize=auto;html=1;" edge="1" parent="1" source="MZ6gyHuy5aCQJNglztON-191" target="MZ6gyHuy5aCQJNglztON-193">
          <mxGeometry relative="1" as="geometry" />
        </mxCell>
        <mxCell id="MZ6gyHuy5aCQJNglztON-191" value="stack에서 꺼내면서 경로 출력" style="rounded=0;whiteSpace=wrap;html=1;" vertex="1" parent="1">
          <mxGeometry x="1185" y="1275" width="170" height="50" as="geometry" />
        </mxCell>
        <mxCell id="MZ6gyHuy5aCQJNglztON-196" value="" style="edgeStyle=orthogonalEdgeStyle;rounded=0;orthogonalLoop=1;jettySize=auto;html=1;" edge="1" parent="1" source="MZ6gyHuy5aCQJNglztON-193" target="MZ6gyHuy5aCQJNglztON-195">
          <mxGeometry relative="1" as="geometry" />
        </mxCell>
        <mxCell id="MZ6gyHuy5aCQJNglztON-193" value="cost 출력" style="rounded=0;whiteSpace=wrap;html=1;" vertex="1" parent="1">
          <mxGeometry x="1185" y="1354" width="170" height="50" as="geometry" />
        </mxCell>
        <mxCell id="MZ6gyHuy5aCQJNglztON-195" value="end" style="strokeWidth=2;html=1;shape=mxgraph.flowchart.terminator;whiteSpace=wrap;" vertex="1" parent="1">
          <mxGeometry x="1220" y="1470" width="100" height="60" as="geometry" />
        </mxCell>
        <mxCell id="MZ6gyHuy5aCQJNglztON-197" value="yes" style="edgeStyle=orthogonalEdgeStyle;rounded=0;orthogonalLoop=1;jettySize=auto;html=1;exitX=0.5;exitY=1;exitDx=0;exitDy=0;entryX=0;entryY=0.5;entryDx=0;entryDy=0;entryPerimeter=0;" edge="1" parent="1" source="MZ6gyHuy5aCQJNglztON-183" target="MZ6gyHuy5aCQJNglztON-195">
          <mxGeometry x="-0.907" relative="1" as="geometry">
            <Array as="points">
              <mxPoint x="1030" y="1720" />
              <mxPoint x="1200" y="1720" />
              <mxPoint x="1200" y="1500" />
            </Array>
            <mxPoint as="offset" />
          </mxGeometry>
        </mxCell>
        <mxCell id="MZ6gyHuy5aCQJNglztON-201" value="" style="edgeStyle=orthogonalEdgeStyle;rounded=0;orthogonalLoop=1;jettySize=auto;html=1;" edge="1" parent="1" source="MZ6gyHuy5aCQJNglztON-199" target="MZ6gyHuy5aCQJNglztON-200">
          <mxGeometry relative="1" as="geometry" />
        </mxCell>
        <mxCell id="MZ6gyHuy5aCQJNglztON-199" value="start" style="strokeWidth=2;html=1;shape=mxgraph.flowchart.terminator;whiteSpace=wrap;" vertex="1" parent="1">
          <mxGeometry x="1760" y="700" width="100" height="60" as="geometry" />
        </mxCell>
        <mxCell id="MZ6gyHuy5aCQJNglztON-203" value="" style="edgeStyle=orthogonalEdgeStyle;rounded=0;orthogonalLoop=1;jettySize=auto;html=1;" edge="1" parent="1" source="MZ6gyHuy5aCQJNglztON-200" target="MZ6gyHuy5aCQJNglztON-202">
          <mxGeometry relative="1" as="geometry" />
        </mxCell>
        <mxCell id="MZ6gyHuy5aCQJNglztON-200" value="무방향으로 edge에 대한 정보를 맵에 저장" style="rounded=0;whiteSpace=wrap;html=1;" vertex="1" parent="1">
          <mxGeometry x="1740" y="800" width="140" height="60" as="geometry" />
        </mxCell>
        <mxCell id="MZ6gyHuy5aCQJNglztON-205" value="" style="edgeStyle=orthogonalEdgeStyle;rounded=0;orthogonalLoop=1;jettySize=auto;html=1;" edge="1" parent="1" source="MZ6gyHuy5aCQJNglztON-202" target="MZ6gyHuy5aCQJNglztON-204">
          <mxGeometry relative="1" as="geometry" />
        </mxCell>
        <mxCell id="MZ6gyHuy5aCQJNglztON-202" value="2차원 배열에&lt;br&gt;해당 내용 저장" style="rounded=0;whiteSpace=wrap;html=1;" vertex="1" parent="1">
          <mxGeometry x="1740" y="900" width="140" height="60" as="geometry" />
        </mxCell>
        <mxCell id="MZ6gyHuy5aCQJNglztON-207" value="yes" style="edgeStyle=orthogonalEdgeStyle;rounded=0;orthogonalLoop=1;jettySize=auto;html=1;" edge="1" parent="1" source="MZ6gyHuy5aCQJNglztON-204" target="MZ6gyHuy5aCQJNglztON-206">
          <mxGeometry relative="1" as="geometry" />
        </mxCell>
        <mxCell id="MZ6gyHuy5aCQJNglztON-204" value="&amp;nbsp; for (int k = 0; k &amp;lt; graph-&amp;gt;getSize(); k++)" style="rhombus;whiteSpace=wrap;html=1;" vertex="1" parent="1">
          <mxGeometry x="1720" y="1000" width="180" height="70" as="geometry" />
        </mxCell>
        <mxCell id="MZ6gyHuy5aCQJNglztON-209" value="yes" style="edgeStyle=orthogonalEdgeStyle;rounded=0;orthogonalLoop=1;jettySize=auto;html=1;" edge="1" parent="1" source="MZ6gyHuy5aCQJNglztON-206" target="MZ6gyHuy5aCQJNglztON-208">
          <mxGeometry relative="1" as="geometry" />
        </mxCell>
        <mxCell id="MZ6gyHuy5aCQJNglztON-214" value="no" style="edgeStyle=orthogonalEdgeStyle;rounded=0;orthogonalLoop=1;jettySize=auto;html=1;exitX=0;exitY=0.5;exitDx=0;exitDy=0;" edge="1" parent="1" source="MZ6gyHuy5aCQJNglztON-206">
          <mxGeometry relative="1" as="geometry">
            <mxPoint x="1810" y="980" as="targetPoint" />
            <Array as="points">
              <mxPoint x="1710" y="1165" />
              <mxPoint x="1710" y="980" />
            </Array>
          </mxGeometry>
        </mxCell>
        <mxCell id="MZ6gyHuy5aCQJNglztON-206" value="&amp;nbsp;for (int i = 0; i &amp;lt; graph-&amp;gt;getSize(); i++)" style="rhombus;whiteSpace=wrap;html=1;" vertex="1" parent="1">
          <mxGeometry x="1720" y="1130" width="180" height="70" as="geometry" />
        </mxCell>
        <mxCell id="MZ6gyHuy5aCQJNglztON-211" value="yes" style="edgeStyle=orthogonalEdgeStyle;rounded=0;orthogonalLoop=1;jettySize=auto;html=1;" edge="1" parent="1" source="MZ6gyHuy5aCQJNglztON-208" target="MZ6gyHuy5aCQJNglztON-210">
          <mxGeometry relative="1" as="geometry" />
        </mxCell>
        <mxCell id="MZ6gyHuy5aCQJNglztON-213" value="no" style="edgeStyle=orthogonalEdgeStyle;rounded=0;orthogonalLoop=1;jettySize=auto;html=1;exitX=0;exitY=0.5;exitDx=0;exitDy=0;" edge="1" parent="1" source="MZ6gyHuy5aCQJNglztON-208">
          <mxGeometry relative="1" as="geometry">
            <mxPoint x="1810" y="1100" as="targetPoint" />
            <Array as="points">
              <mxPoint x="1670" y="1300" />
              <mxPoint x="1670" y="1100" />
            </Array>
          </mxGeometry>
        </mxCell>
        <mxCell id="MZ6gyHuy5aCQJNglztON-208" value="&amp;nbsp;for (int j = 0; j &amp;lt; graph-&amp;gt;getSize(); j++)" style="rhombus;whiteSpace=wrap;html=1;" vertex="1" parent="1">
          <mxGeometry x="1720" y="1265" width="180" height="70" as="geometry" />
        </mxCell>
        <mxCell id="MZ6gyHuy5aCQJNglztON-212" value="" style="edgeStyle=orthogonalEdgeStyle;rounded=0;orthogonalLoop=1;jettySize=auto;html=1;" edge="1" parent="1" source="MZ6gyHuy5aCQJNglztON-210">
          <mxGeometry x="0.1547" relative="1" as="geometry">
            <mxPoint x="1810" y="1230" as="targetPoint" />
            <Array as="points">
              <mxPoint x="1710" y="1420" />
              <mxPoint x="1710" y="1230" />
            </Array>
            <mxPoint as="offset" />
          </mxGeometry>
        </mxCell>
        <mxCell id="MZ6gyHuy5aCQJNglztON-210" value="table[i][j]&lt;br&gt;최솟값 업데이트" style="rounded=0;whiteSpace=wrap;html=1;" vertex="1" parent="1">
          <mxGeometry x="1750" y="1390" width="120" height="60" as="geometry" />
        </mxCell>
        <mxCell id="MZ6gyHuy5aCQJNglztON-215" value="end" style="strokeWidth=2;html=1;shape=mxgraph.flowchart.terminator;whiteSpace=wrap;" vertex="1" parent="1">
          <mxGeometry x="1950" y="1002.5" width="101" height="65" as="geometry" />
        </mxCell>
        <mxCell id="MZ6gyHuy5aCQJNglztON-216" value="no" style="edgeStyle=orthogonalEdgeStyle;rounded=0;orthogonalLoop=1;jettySize=auto;html=1;entryX=0;entryY=0.5;entryDx=0;entryDy=0;entryPerimeter=0;" edge="1" parent="1" source="MZ6gyHuy5aCQJNglztON-204" target="MZ6gyHuy5aCQJNglztON-215">
          <mxGeometry relative="1" as="geometry" />
        </mxCell>
      </root>
    </mxGraphModel>
  </diagram>
</mxfile>
